/* XPM */
static const char *scummvm_icon[] = {
/* columns rows colors chars-per-pixel */
"32 32 25 1 ",
"  c None",
". c #222222",
"X c gray20",
"o c #115522",
"O c #224422",
"+ c #225522",
"@ c #224433",
"# c #334433",
"$ c #225533",
"% c #006622",
"& c #116622",
"* c #007722",
"= c #117722",
"- c #117733",
"; c #226633",
": c #227733",
"> c #008822",
", c #009922",
"< c #118833",
"1 c #119933",
"2 c #00AA22",
"3 c #00AA33",
"4 c #11AA33",
"5 c #00BB33",
"6 c #00CC33",
/* pixels */
"                                ",
"           XXXXXXXXXX           ",
"         XXXX#@$$##XXXX         ",
"        XXX;1355554<;#XXX       ",
"       XX#166666666664;XXX      ",
"      XX#46666666666665<#XX     ",
"      XX<6666666666666661#XX    ",
"     XX@56666666556666665;XX    ",
"     XX;6666666,%*>25666,@X.    ",
"     XX:66666661XX@o*363oXX     ",
"     XX:66666665<#XX@&,=XX.     ",
"     XX;6666666664:#XX+@XX      ",
"     XX$566666666664;XXXX       ",
"      XX>666666666665<#XX       ",
"      XX+26666666666664#XX      ",
"       XX&26666666666664#X      ",
"       XXX&,566666666666<XX     ",
"        XXXo*366666666665#X     ",
"        XXXX@&>5666666666;XX    ",
"       XX$XXXXO*266666666<XX    ",
"      XX:5<#XXX@o26666666<XX    ",
"     XX;5664;#XXX-6666666<XX    ",
"    XX$5666664<::46666666-XX    ",
"    XX-666666666666666665$XX    ",
"    XX@,6666666666666666>XXX    ",
"    XXXo,56666666666666,+XX     ",
"     XXX+>366666666665>oXXX     ",
"      XXX@&>25555552>%OXXX      ",
"       XXXXOo&****%oOXXXX       ",
"         XXXXXX@@@XXXXX.        ",
"           XXXXXXXXXX.          ",
"                                "
};
