/* XPM */
static char *scummvm[] = {
/* columns rows colors chars-per-pixel */
"29 32 217 2",
"   c #00AB00C60027",
".  c #065C0A00004D",
"X  c #09060C0F01B3",
"o  c #0BB5119E0159",
"O  c #0E3D112E09F8",
"+  c #11621647042E",
"@  c #12461C1F00EB",
"#  c #16971C8A0CBD",
"$  c #17CA1BFB093F",
"%  c #161822EC015F",
"&  c #1A2D23EB01E2",
"*  c #1A442BA10072",
"=  c #1ABB22080E4C",
"-  c #1E9532E000AF",
";  c #1DF8213617B0",
":  c #2513349A0195",
">  c #298C351A01DD",
",  c #24323C2A022D",
"<  c #2100247510C4",
"1  c #236029371A0C",
"2  c #29AF44510249",
"3  c #2EC548DD035C",
"4  c #2DAF46040E23",
"5  c #346A45080297",
"6  c #32454D3F02C0",
"7  c #33CA546902C5",
"8  c #3AB0541B03D5",
"9  c #336059E802A8",
"0  c #3BD45A740554",
"q  c #380754300A4D",
"w  c #38DE421E106E",
"e  c #367A47221E3A",
"r  c #3DFB65390401",
"t  c #4346501E1A52",
"y  c #457E60F805CA",
"u  c #4AD562CE00FE",
"i  c #43AE6D8E033B",
"p  c #483D6CEB06A5",
"a  c #43CA754301D1",
"s  c #4A4273C304ED",
"d  c #476D797101BE",
"f  c #4C327C340377",
"g  c #520A7CEE063C",
"h  c #41954E742E8F",
"j  c #49F652D326F4",
"k  c #4CCA5AD5386E",
"l  c #49AF6094248D",
"z  c #592C6DB23A56",
"x  c #5ECD74CE3A3F",
"c  c #4D7782B5028B",
"v  c #4E8B89E30260",
"b  c #524D83200537",
"n  c #5B52863D04E0",
"m  c #52668C34033B",
"M  c #580F8F6C0464",
"N  c #5A5F86E309BB",
"B  c #565D8F4B07EC",
"V  c #5B1F8A8A09EC",
"C  c #5ABF958C0490",
"Z  c #5D4B98D5052A",
"A  c #5CD5957B0908",
"S  c #5FA69E0E0D02",
"D  c #61F2820A027C",
"F  c #64D58E9C0539",
"G  c #6CC98F5F01DF",
"H  c #641C94CA04B7",
"J  c #6C9D97BC03E0",
"K  c #634C997B0410",
"L  c #634492F90A5B",
"P  c #6A72965D094E",
"I  c #65039F4C08D9",
"U  c #695399BA0BB7",
"Y  c #70A593F9048A",
"T  c #7B90977E064B",
"R  c #75129E2505C8",
"E  c #7B859B6A05F0",
"W  c #725792EC0833",
"Q  c #73199D5C0B1C",
"!  c #79D99B5408C1",
"~  c #69548F851709",
"^  c #712E884812D9",
"/  c #673A9DEA11E4",
"(  c #6D799D5712A7",
")  c #6B34A73603F9",
"_  c #6CEDA5AC0B00",
"`  c #71A5A6A90593",
"'  c #7CE6A63904E9",
"]  c #7D0AADAD0587",
"[  c #7CF5A5D40E90",
"{  c #708CA96C0E11",
"}  c #7395B35D0634",
"|  c #76A9B8520532",
" . c #7AA1B97805D2",
".. c #7537B730094C",
"X. c #7876BC880985",
"o. c #65A8A3A51398",
"O. c #6F54A6D315D9",
"+. c #6B96AB77104A",
"@. c #7026ADDE1764",
"#. c #7B85AB4B1725",
"$. c #7306AACD1AC7",
"%. c #77B9B0911EEC",
"&. c #7B93B3DB1DC5",
"*. c #6B3A94542F0D",
"=. c #672C851A32BF",
"-. c #664181093E44",
";. c #698483E53F9A",
":. c #72E18838338D",
">. c #7FDD93BD37FA",
",. c #7533AB4B2910",
"<. c #7F15ADEB2BC5",
"1. c #77BEB2A724F1",
"2. c #7DF4B3FC21D9",
"3. c #7F74A5B83EBC",
"4. c #7CF9C3DE06D2",
"5. c #6D3E85D24835",
"6. c #78AB86FF431F",
"7. c #71D5877C4DA3",
"8. c #75F08FC94D41",
"9. c #7946998C4A4E",
"0. c #7EEFA63D4292",
"q. c #82A59F28082C",
"w. c #82329EF61B4D",
"e. c #84E3A439074E",
"r. c #87C8A9A50719",
"t. c #84D7A41D0AF8",
"y. c #8531ADA50C51",
"u. c #8F57A9CB0AAE",
"i. c #9181AE95099C",
"p. c #84ECB0500616",
"a. c #8AE7B61505D6",
"s. c #83CBB8470602",
"d. c #8D7EBC0803B8",
"f. c #8C8AB2800AD2",
"g. c #8757BCA50BFD",
"h. c #8B5BB99C09C4",
"j. c #9110B7870491",
"k. c #92DFBC7D0568",
"l. c #9858BE350675",
"z. c #93D5B43D0A8C",
"x. c #9455BCD20AC4",
"c. c #9C41BE550C39",
"v. c #92EFAFED1C35",
"b. c #82ACBB4616F0",
"n. c #8D14BBC21362",
"m. c #8B1DBBFB1D81",
"M. c #9699BE4213C8",
"N. c #9E2DBEB21145",
"B. c #9100B1471DE6",
"V. c #92FEBFF51D56",
"C. c #A2B7BF7512E4",
"Z. c #81EDA2B82124",
"A. c #8189B6CF25DA",
"S. c #82FEBB2722D7",
"D. c #8240B7EC28F0",
"F. c #8486BCA92AE1",
"G. c #8C89C0292902",
"H. c #98AEBE11236E",
"J. c #9348BFFB2AFB",
"K. c #9630B01B3E88",
"L. c #83EFBB8633B0",
"P. c #8AC7BF3C37AE",
"I. c #8B50BEC23C43",
"U. c #9163B4793241",
"Y. c #872DC4B705B6",
"T. c #843CCD6E0953",
"R. c #9157C7E7051D",
"E. c #9605C98C07C6",
"W. c #9C54C9350D0D",
"Q. c #8A45D74A09FD",
"!. c #8FA6DFEA078F",
"~. c #8AEFC9CA1D92",
"^. c #9C7BC3A412B1",
"/. c #936FC1931A73",
"(. c #9D30C27B1B22",
"). c #994BCFCD17BB",
"_. c #A339C0F41950",
"`. c #8F1EE3590886",
"'. c #9DC9E77C1695",
"]. c #94D8C348255F",
"[. c #9AFAC33522AF",
"{. c #A382C57025CD",
"}. c #A88EC6B626F4",
"|. c #A419C41D2CE1",
" X c #A40BC8782B71",
".X c #A6F7C44A37A1",
"XX c #A3E8CC7F3513",
"oX c #AB85C6D43E9C",
"OX c #A4C3C9123A61",
"+X c #A7BFDFA8342F",
"@X c #A5E8D8D83ADF",
"#X c #A7C9EB132725",
"$X c #AB6BEE333BF7",
"%X c #8559AFFC4653",
"&X c #883DBE3F40B4",
"*X c #8F23A0AD5435",
"=X c #88F2A0E65809",
"-X c #9281A77359A2",
";X c #910BB2765FBB",
":X c #A39CBCC549FD",
">X c #97E5B0AC72E5",
",X c #8FF4C16D4936",
"<X c #9032C23D4BBF",
"1X c #999BC5D05408",
"2X c #9F7AC9665D0C",
"3X c #AD4DCEC84247",
"4X c #B646D25151FA",
"5X c #BD99DA215688",
"6X c #BBD5DD5D5921",
"7X c #AB07E38E544B",
"8X c #B87BE15D5304",
"9X c #BB53E0A95D89",
"0X c #B8B1EC0E5FC0",
"qX c #B1E6DF086ADD",
"wX c #A873CDB6768B",
"eX c #B81AE3C964F1",
"rX c None",
/* pixels */
"rXrXrXrXrXrXrXrXrXrXrXrXrXrXrXrXrXrXrXrXrXrXrXrXrXrXrXrXrX",
"rXrXrXrXrXrXrXrXrXrXrX. .         . . rXrXrXrXrXrXrXrXrXrX",
"rXrXrXrXrXrXrXrX                            rXrXrXrXrXrXrX",
"rXrXrXrXrXrX                .                   rXrXrXrXrX",
"rXrXrXrXrX          O h 7.=X-X*X6.j < .           X rXrXrX",
"rXrXrXrX        X h ;XqXeX9X6X5X5X4X:X>.t o         . rXrX",
"rXrXrXrX      O 5.qX8XXX[.{.{.{.{. XXXOXU.~ 3 .       rXrX",
"rXrXrX      . ;.0X@X(.h.a.z.f.z.c.N.M.B.w.[ 4.m X       rX",
"rXrXrX      e 7X+X^.a.p.r.q.E e.u.i.r.! W ` Q.X.o       rX",
"rXrXrX      *.$X).d.j.i.t.R R R T E Y G J ..Q.8       rXrX",
"rXrXrX    o F.#XW.k.j.z.f.| ) 8 > 5 u D ` T.L .     rXrXrX",
"rXrX      + ~.'.W.l.k.k.k.Y.F o     . & n | -       rXrXrX",
"rXrXrX    o ..`.R.d.x.c.c.c.x.^ w $     + :       rXrXrXrX",
"rXrXrX      f !.E.k.k.C.C.N.(.}..XK.:.t +         rXrXrXrX",
"rXrXrX      *  .W.x.k.c.C.C._./.].XX3XoXZ.0 X       rXrXrX",
"rXrXrX        6 y.z.a.d.k.N.C.M./.{.|.|.H.g.g X     rXrXrX",
"rXrXrXrX        5 W ' ] a.h.x.M.V.[.[.H.v.y.g.8       rXrX",
"rXrXrXrX          @ y P f.h.s.n.H.].V.m.#.Q ] H o     rXrX",
"rXrXrXrX      1 O     & y H } b.J.G.S.S.O.L P K *     rXrX",
"rXrXrX      ; >X8.=       o q <.L.F.A.&./ V N m -     . rX",
"rXrXrX      k wX2X3.l # .   . =.P.D.%.o.B f g c *       rX",
"rXrX      O 9.1XI.P.I.0.-.z x %XL.A.$.A c a d f @       rX",
"rXrX      4 ,.2.&.2.A.L.&X<X,XL.1.$.( V d a f s o     rXrX",
"rX        9 A I _ { { +.@.2.$.o.S A V g d f b 3       rXrX",
"rXrX      o 6 b M m C Z Z U A v v c f f f b 0 X       rXrX",
"rXrX          % 7 a f b c b b f g f d f f 7 X       rXrXrX",
"rXrXrX            @ , 7 r i i i p r 9 2 %           rXrXrX",
"rXrXrXrX              . o @ @ @ @ o .             rXrXrXrX",
"rXrXrXrXrXrX                                    rXrXrXrXrX",
"rXrXrXrXrXrXrXrX                            rXrXrXrXrXrXrX",
"rXrXrXrXrXrXrXrXrXrXrX                rXrXrXrXrXrXrXrXrXrX",
"rXrXrXrXrXrXrXrXrXrXrXrXrXrXrXrXrXrXrXrXrXrXrXrXrXrXrXrXrX"
};
