<?xml version="1.0" encoding="utf-8"?>
<!-- Generator: Adobe Illustrator 12.0.1, SVG Export Plug-In  -->
<!DOCTYPE svg PUBLIC "-//W3C//DTD SVG 1.1//EN" "http://www.w3.org/Graphics/SVG/1.1/DTD/svg11.dtd" [
	<!ENTITY ns_flows "http://ns.adobe.com/Flows/1.0/">
	<!ENTITY ns_svg "http://www.w3.org/2000/svg">
	<!ENTITY ns_xlink "http://www.w3.org/1999/xlink">
]>
<svg  version="1.1" xmlns="&ns_svg;" xmlns:xlink="&ns_xlink;" xmlns:a="http://ns.adobe.com/AdobeSVGViewerExtensions/3.0/"
	 width="1160" height="340" viewBox="-17.2158203 -13.8520508 1160 340" enable-background="new -17.2158203 -13.8520508 1160 340"
	 xml:space="preserve">
<defs>
</defs>
<path id="VM_Shadow_1_" opacity="0.2" d="M1115.4257813,48.6450195c-3.7802734-4.5102539-9.0878906-7.2749023-14.9433594-7.7841797
	l-35.7626953-3.1098633c-9.4433594-0.8212891-19.2167969,4.4121094-23.7675781,12.7260742
	c0,0-47.9160156,87.5043945-70.7236328,129.1572266c-12.2822266-45.5493164-37.7197266-139.8891602-37.7197266-139.8891602
	c-2.5625-9.5043945-11.1933594-16.831543-20.9882813-17.8173828l-39.4199219-3.9682617
	c-6.5302734-0.6572266-12.6884766,1.5805664-17.1992188,5.6850586c-0.7802734-2.9443359-2.3486328-5.6689453-4.5996094-7.8505859
	c-4.0205078-3.8969727-9.7011719-5.5644531-15.1894531-4.4584961l-46.4003906,9.3491211
	c-7.0888672,1.4282227-12.4980469,7.184082-13.4833984,14.347168c0,0-8.7255859,63.3920898-15.2685547,110.9360352
	c-23.609375-42.0039063-55.2216797-98.2490234-55.2216797-98.2490234
	c-3.6259766-6.4521484-11.0117188-9.8164063-18.2597656-8.3183594l-51.9404297,10.734375
	c-5.3818359,1.1118164-9.8935547,4.7563477-12.1123047,9.7832031c-2.21875,5.0273438-1.8710938,10.8164063,0.9335938,15.5415039
	l127.4277344,214.6875c3.6484375,6.1464844,10.7509766,9.3544922,17.7744141,8.0283203l31.1650391-5.8867188
	c6.9902344-1.3212891,12.4189453-6.8544922,13.6064453-13.8681641l0.5449219-3.2167969
	c0.7089844,3.1123047,2.0917969,6.0615234,4.0917969,8.5976563c3.6835938,4.6699219,9.2128906,7.6464844,15.1708984,8.1669922
	l31.7861328,2.7763672c11.8164063,1.03125,22.3525391-7.3623047,23.9873047-19.1103516c0,0,4.4785156-32.21875,8.9140625-64.1230469
	c10.7197266,36.8125,21.4453125,73.6416016,21.4453125,73.6416016c2.7021484,9.2724609,11.2939453,16.4599609,20.8935547,17.4814453
	l21.2041016,2.2548828c9.4013672,1.0009766,19.2675781-4.0205078,23.9931641-12.2109375
	c0,0,18.9179688-32.8095703,37.8066406-65.5654297c-2.6210938,30.4550781-5.2714844,61.2587891-5.2714844,61.2587891
	c-0.0546875,0.6318359-0.0810547,1.2607422-0.0810547,1.8847656c0,11.1474609,8.5351563,20.8105469,19.8125,21.9775391
	l38.0996094,3.9423828c5.8837891,0.6083984,11.6396484-1.1279297,16.2050781-4.8916016s7.3691406-9.0820313,7.8945313-14.9755859
	l20.6494141-231.5888672C1121.0019531,58.8647461,1119.2070313,53.15625,1115.4257813,48.6450195z"/>
<path id="Scumm_Shadow_1_" opacity="0.2" d="M719.6113281,167.5893555c-2.2167969-3.9873047-5.1591797-7.90625-8.7451172-11.6479492
	c-11.4648438-11.9599609-28.7167969-19.1928711-46.1494141-19.347168
	c-8.6894531-0.0776367-17.1357422,1.6411133-24.4248047,4.9711914c0,0,0,0-0.0009766,0
	c-2.1845703,0.9990234-4.0810547,2.1455078-5.7958984,3.3515625c-5.0361328-3.6757813-11.1396484-6.2363281-17.3632813-7.1660156
	c-7.2402344-1.0800781-14.890625-0.0722656-21.6660156,2.7792969c-2.6259766-1.5498047-5.6240234-2.4492188-8.8193359-2.46875
	c-0.0019531,0-1.5849609,0.0019531-1.5849609,0.0019531c-0.0253906,0-2.5537109,0.0087891-2.5537109,0.0087891l-3.6904297,0.0029297
	c-0.0146484,0-3.2949219-0.0126953-3.2949219-0.0126953l-4.0917969,0.0126953c-0.0029297,0-6.9755859,0.0625-6.9755859,0.0625
	c-0.0117188,0.0009766-6.8183594,0.0214844-6.8183594,0.0214844c-2.453125-0.0146484-5.1083984,0-7.9135742,0.2011719
	c-6.5024414,0.4667969-11.9453125,3.8476563-14.9345703,9.2773438c-0.7543945,1.3720703-1.2583008,2.7167969-1.6000977,3.9599609
	c-11.2177734-9.3798828-26.3144531-14.9213867-41.5493164-15.0561523
	c-8.6899414-0.0771484-17.1367188,1.6411133-24.4257813,4.9711914h-0.0004883
	c-2.1850586,0.9990234-4.081543,2.1445313-5.7958984,3.3515625c-5.0385742-3.6757813-11.140625-6.2363281-17.3647461-7.1660156
	c-7.2397461-1.0805664-14.8916016-0.0712891-21.6645508,2.7792969c-2.6259766-1.5498047-5.6240234-2.4492188-8.8203125-2.46875
	c-0.0009766,0-1.5844727,0.0019531-1.5844727,0.0019531c-0.0253906,0-2.5532227,0.0087891-2.5532227,0.0087891l-3.6899414,0.0029297
	c-0.0141602,0-3.2958984-0.0126953-3.2958984-0.0126953l-4.0913086,0.0126953c-0.0019531,0-6.9750977,0.0625-6.9750977,0.0625
	c-0.0112305,0.0009766-6.8178711,0.0214844-6.8178711,0.0214844c-2.4536133-0.0146484-5.109375,0-7.9145508,0.2011719
	c-2.5380859,0.1816406-4.9111328,0.8144531-7.043457,1.8320313c-4.4541016-3.6098633-9.5883789-4.1459961-11.262207-4.2192383
	c-4.5244141-0.1967773-8.8710938-0.1152344-13.0751953-0.0361328c0,0-5.9111328,0.0795898-5.9150391,0.0795898h-0.0004883
	c0.0161133,0,0.0239258-0.0004883,0.0239258-0.0004883l-0.0424805,0.0004883
	c-0.1845703-0.0004883-3.6264648-0.0097656-3.6264648-0.0097656c-5.534668-0.0288086-11.2578125-0.0585938-17.3447266,0.6713867
	c-2.0429688,0.2446289-9.777832,1.7036133-13.984375,9.340332c-3.3046875-3.5703125-8.8447266-6.6074219-18.1582031-5.8691406
	l-0.1953125,0.015625c-0.0043945,0-13.5883789,0.8349609-13.5883789,0.8349609
	c-6.40625,0.3466797-13.0307617,0.7050781-19.6289063,1.3408203c-9.2836914,0.8925781-16.3520508,5.9785156-19.3764648,13.4814453
	c-1.0791016-1.1269531-2.1728516-2.2167969-3.2954102-3.2216797c-4.152832-3.71875-9.324707-7.2382813-15.3720703-10.4609375
	c-4.0273438-2.1435547-8.3632813-3.8984375-12.894043-5.2167969c-15.0654297-4.3891602-32.3413086-3.4326172-48.6411133,2.6933594
	c-0.0009766,0-0.0014648,0.0009766-0.0014648,0.0009766c-6.1791992,2.3232422-11.9863281,5.5576172-17.2607422,9.6113281
	c-4.3217773,3.3251953-8.2919922,7.2099609-11.8115234,11.4760742c-2.9257813-5.9106445-8.0849609-9.2202148-10.4321289-10.7163086
	l-0.4399414-0.28125c-4.3022461-2.7744141-8.8168945-5.2783203-13.4208984-7.4443359
	c-5.0522461-2.3759766-10.4238281-4.3720703-15.9697266-5.9355469c-20.699707-5.8369141-41.5214844-2.8476563-57.1254883,8.2001953
	c-3.1586914,2.2363281-6.0390625,4.6132813-8.5610352,7.0644531c-3.953125,3.8447266-6.8540039,8.5874023-9.1708984,12.7192383
	c-4.0488281,7.2226563-6.043457,15.171875-6.043457,23.0996094c0,10.453125,3.4677734,20.8681641,10.265625,29.5244141
	c0.6689453,0.8525391-0.2416992,1.7675781-0.7543945,2.4580078c-0.6953125,0.9345703-1.3515625,1.8984375-1.9829102,2.8779297
	c-2.6035156,4.0380859-4.9482422,8.3134766-6.8999023,12.7041016c-1.1259766,2.5332031-2.3300781,5.1103516-2.9833984,7.8144531
	C0.1889648,244.5708008,0,246.4731445,0,248.3579102c0,1.2109375,0.1108398,2.3183594,0.2773438,3.3007813
	c1.5795898,9.2988281,9.1171875,14.1230469,11.9545898,15.9394531c3.5102539,2.2431641,7.3642578,4.3789063,11.7900391,6.5341797
	c18.9960938,9.2490234,41.0283203,12.2089844,60.4487305,8.1220703c3.4663086-0.7304688,7.1450195-1.8505859,10.9345703-3.3300781
	c5.7265625-2.2363281,11.6811523-5.8095703,16.7675781-10.0615234c3.6225586-3.0283203,6.7075195-6.6025391,9.2080078-10.5869141
	c7.3178711,9.8837891,17.2607422,17.9960938,28.7817383,23.4707031c4.1376953,1.9658203,8.5048828,3.5400391,12.9785156,4.6777344
	c12.7792969,3.2480469,25.8271484,2.9726563,39.8901367-0.8408203c5.4267578-1.4726563,10.4013672-3.6025391,14.784668-6.3320313
	c3.9511719-2.4619141,7.6796875-5.3759766,11.0849609-8.6660156c3.0078125-2.9052734,5.8286133-6.1044922,8.3686523-9.4462891
	c7.8632813,13.9697266,20.0556641,23.4423828,34.7783203,26.4326172c9.2954102,1.8896484,18.3730469,2.4501953,26.9790039,1.6679688
	c6.574707-0.5986328,11.7490234-1.6318359,16.777832-3.3515625c0.2080078-0.0712891,0.3818359-0.1591797,0.5844727-0.2324219
	c5.4594727,3.1337891,11.1533203,2.6630859,13.3208008,2.4765625l0.3764648-0.03125
	c0.0175781,0,4.9179688-0.1513672,4.9179688-0.1513672l2.2680664-0.0498047
	c0.0083008-0.0009766,16.2783203-0.3427734,16.2783203-0.3427734c-0.0239258,0,0.9541016,0.0341797,0.9541016,0.0341797
	c3.9692383,0.1640625,12.1196289,0.484375,18.6142578-5.1767578c2.5981445,0.9316406,5.7539063,1.4375,9.6098633,1.2451172
	c0,0,0.3481445-0.0166016,0.394043-0.0185547c0.1303711,0,0.7543945,0.0019531,0.7543945,0.0019531
	c0.0366211,0,8.5859375-0.0664063,8.5859375-0.0664063c0.0024414,0,12.6293945-0.1123047,12.6293945-0.1123047l9.3398438-0.1435547
	c4.7314453,0.0039063,9.0634766-1.5947266,12.5180664-4.3974609c0.5073242,0.5703125,1.0263672,1.1386719,1.6396484,1.6787109
	c6.7729492,5.9609375,15.2001953,5.6542969,19.25,5.5058594l0.5454102-0.0185547
	c5.4755859-0.171875,11.1552734-0.1152344,16.6484375-0.0615234l2.6982422,0.0185547l5.4765625,0.0712891
	c6.144043,0.1884766,11.6210938-2.4902344,15.3769531-6.8642578c1.1938477,0.3535156,2.4306641,0.6152344,3.7158203,0.7363281
	l4.1113281,0.3828125c0.0029297,0,4.4702148,0.4296875,4.4702148,0.4296875l13.7524414,1.2607422
	c0,0.0009766,3.2373047,0.4033203,3.2373047,0.4033203c2.2094727,0.3125,4.7133789,0.6660156,7.559082,0.7480469
	c-0.0058594,0-0.1357422-0.0048828-0.1357422-0.0048828l0.4321289,0.0322266
	c2.5483398,0.2011719,7.8525391,0.6201172,13.1098633-2.3271484c0.7543945-0.4228516,1.4658203-0.8857422,2.1352539-1.3867188
	c3.1845703,2.6308594,7.8847656,4.53125,14.8334961,4.1845703c0,0,0.3481445-0.0166016,0.394043-0.0185547
	c0.1303711,0,0.7543945,0.0019531,0.7543945,0.0019531c0.0366211,0,8.5854492-0.0664063,8.5854492-0.0664063
	c0.0019531,0,12.6298828-0.1123047,12.6298828-0.1123047l9.3408203-0.1435547
	c4.7304688,0.0039063,9.0625-1.5947266,12.5175781-4.3974609c0.5068359,0.5703125,1.0263672,1.1386719,1.6396484,1.6787109
	c6.7695313,5.9609375,15.1992188,5.6542969,19.25,5.5058594l0.5449219-0.0185547
	c5.4755859-0.171875,11.1552734-0.1152344,16.6484375-0.0615234l2.6992188,0.0185547l5.4765625,0.0712891
	c6.1435547,0.1884766,11.6201172-2.4902344,15.375-6.8642578c1.1943359,0.3535156,2.4306641,0.6152344,3.7158203,0.7363281
	l4.1142578,0.3828125c0.0019531,0,4.4716797,0.4306641,4.4716797,0.4306641l13.75,1.2607422l3.2363281,0.4023438
	c2.2089844,0.3125,4.7128906,0.6660156,7.5585938,0.7480469c-0.0058594,0-0.1357422-0.0048828-0.1357422-0.0048828
	l0.4326172,0.0322266c2.5478516,0.2011719,7.8486328,0.6201172,13.1064453-2.3242188
	c5.9570313-3.3369141,9.2675781-9.1210938,9.84375-17.1933594c0,0,0.0117188-0.1582031,0.0205078-0.2783203
	c0.1982422-1.2412109,0.9433594-5.8955078,0.9433594-5.8955078c0.8173828-5.2705078,1.359375-9.3457031,1.7539063-13.2070313
	l0.4609375-4.4257813l1.0634766-10.5839844c0.4667969-5.0820313,0.9492188-10.3369141,1.2529297-15.6572266
	C728.0830078,199.2016602,727.8242188,182.3569336,719.6113281,167.5893555z M112.6201172,235.3081055
	c-0.0019531,0.0214844-0.0043945,0.0429688-0.0063477,0.0644531c-0.1621094,1.6679688-0.4467773,3.3164063-0.8408203,4.9335938
	c-1.5336914,6.2900391-4.8168945,12.0634766-9.8613281,16.2802734c-3.5375977,2.9570313-8.0200195,5.7519531-12.3256836,7.4335938
	c-2.7036133,1.0556641-5.5673828,1.9785156-8.4101563,2.5771484c-16.6972656,3.5136719-34.8862305,0.5810547-50.1489258-6.8496094
	c-3.4853516-1.6972656-6.9018555-3.5371094-10.1699219-5.6259766c-4.3344727-2.7734375-6.7485352-5.2089844-3.0161133-9.96875
	c2.6542969-3.3837891,4.2919922-7.4023438,5.9008789-11.3515625c0.6396484-1.5703125,0.7583008-3.4541016,1.8139648-4.8330078
	c1.5957031-2.0839844,3.0756836-0.7470703,4.9399414,0.3085938c5.1367188,2.9072266,10.2924805,5.8476563,15.840332,7.9101563
	c4.7573242,1.7685547,11.4360352,3.7294922,16.3837891,1.5859375c2.5375977-1.0996094,3.5068359-4.2304688,2.3774414-6.6298828
	c-1.3432617-2.8544922-4.8525391-4.0058594-7.4477539-5.3730469c-5.237793-2.7568359-11.1743164-3.8291016-16.4555664-6.5527344
	c-5.8344727-3.0097656-11.2827148-7.0273438-15.3569336-12.2158203c-7.8520508-10-9.0727539-23.8183594-2.8496094-34.9189453
	c1.7021484-3.0361328,3.8598633-6.6328125,6.3671875-9.0712891c2.0532227-1.9960938,4.3164063-3.8242188,6.6533203-5.4785156
	c12.5766602-8.9038086,29.0302734-9.949707,43.5385742-5.8588867c4.5791016,1.2910156,9.190918,2.9873047,13.4985352,5.0126953
	c3.9716797,1.8696289,7.8710938,4.0336914,11.5610352,6.4125977c2.3466797,1.5136719,5.4677734,3.2734375,5.6694336,6.4003906
	c0.2128906,3.3056641-1.6420898,6.3828125-3.3310547,9.0751953c-2.3134766,3.6855469-4.777832,9.7646484-8.8740234,11.7324219
	c-2.4580078,1.1796875-5.2851563-1.5976563-6.9082031-3.0908203c-4.362793-4.0136719-9.7216797-6.4277344-15.6435547-6.7412109
	c-3.921875-0.2089844-8.6582031-0.3896484-10.6352539,3.8759766c-1.8242188,3.9384766,2.3725586,6.7402344,5.5390625,7.8925781
	c3.6245117,1.3203125,7.3764648,2.1201172,10.9663086,3.5830078c6.4477539,2.6279297,13.3642578,5.5439453,19.0043945,9.6796875
	c2.4345703,1.7851563,4.6323242,3.9746094,6.4316406,6.4121094c0.1171875,0.1582031,0.2485352,0.3076172,0.3618164,0.46875
	C111.5366211,218.5483398,113.3203125,227.9458008,112.6201172,235.3081055z M233.2304688,194.4360352
	c-1.3173828,0.8945313-2.8295898,1.3222656-4.3720703,1.6289063c-0.8608398,0.1708984-1.7314453,0.3056641-2.5830078,0.4609375
	c-4.7919922,0.8710938-9.5556641,2.234375-14.2451172,3.4804688c-2.4101563,0.6396484-5.6347656,1.8066406-8.1152344,0.9238281
	c-2.0683594-0.7363281-2.5966797-3.0546875-3.4863281-4.8134766c-3.6962891-7.3027344-11.6669922-11.375-19.699707-9.5976563
	c-2.8652344,0.6337891-5.7851563,2.1748047-7.8696289,4.2285156c-8.1494141,8.0292969-9.0898438,20.5703125-5.5239258,30.9521484
	c0.9199219,2.6777344,2.5625,5.5976563,4.4091797,7.7451172c4.2866211,4.984375,11.3227539,6.5810547,17.5512695,4.9189453
	c5.2773438-1.4082031,9.1972656-5.4296875,12.1621094-9.8359375c1.2451172-1.8496094,2.4228516-3.9257813,4.8173828-4.3642578
	c2.0664063-0.3779297,4.390625,0.5615234,6.3652344,1.0742188c4.1884766,1.0878906,8.3964844,2.0361328,12.5068359,3.4033203
	c0.8676758,0.2890625,1.7832031,0.6064453,2.6860352,0.9765625c2.0810547,0.8535156,4.0825195,2.015625,5.1899414,3.9599609
	c1.7080078,3.0019531-0.0712891,6.8007813-1.2792969,9.6982422c-0.4780273,1.1464844-1.0263672,2.2958984-1.6220703,3.4414063
	c-3.1318359,6.0244141-7.7397461,11.9199219-12.3369141,16.3603516c-2.5488281,2.4619141-5.4169922,4.7167969-8.4267578,6.5917969
	c-3.2197266,2.0048828-6.8574219,3.4794922-10.515625,4.4716797c-10.5717773,2.8671875-21.0556641,3.4970703-31.7592773,0.7763672
	c-3.4379883-0.8740234-6.8491211-2.0996094-10.0546875-3.6230469c-9.0786133-4.3134766-16.9897461-10.6220703-22.9462891-18.7451172
	c-2.2602539-3.0820313-4.1889648-6.4140625-5.7509766-9.9082031c-0.9536133-2.1328125-1.7719727-4.3261719-2.4428711-6.5605469
	c-2.4023438-8.0019531-3.4394531-16.3613281-3.0166016-24.6503906c0.3286133-6.4355469,1.5375977-12.828125,3.671875-18.9765625
	c1.1708984-3.3730469,2.6450195-6.6240234,4.4306641-9.7177734c3.7573242-6.5087891,8.7802734-12.2900391,14.7387695-16.875
	c3.9814453-3.0605469,8.4365234-5.5512695,13.1401367-7.3198242c12.2041016-4.5869141,25.9091797-5.9882813,38.5400391-2.3085938
	c3.3613281,0.9785156,6.7480469,2.328125,9.8408203,3.9746094c4.2216797,2.2495117,8.6523438,5.0620117,12.2246094,8.2602539
	c2.7617188,2.4726563,5.2314453,5.359375,7.3808594,8.3789063c1.3066406,1.8369141,2.5039063,3.7558594,3.59375,5.734375
	c1.0673828,1.9375,2.03125,3.9316406,2.8886719,5.9658203C234.625,187.637207,236.8564453,191.972168,233.2304688,194.4360352z
	 M191.2949219,211.4155273c-1.2875977,1.4648438-2.2265625,2.8476563-2.8500977,3.7880859l-0.2597656,0.3896484
	c-1.894043,2.8144531-3.0317383,3.3164063-3.0424805,3.3203125c-0.6235352,0.1650391-1.1450195,0.0585938-1.3476563-0.0205078
	c-0.4345703-0.5390625-1.0356445-1.5419922-1.3276367-2.3916016c-0.6894531-2.0087891-1.1108398-4.2919922-1.1108398-6.5097656
	c0-2.9814453,0.7719727-5.8369141,2.6645508-7.7587891c0.0683594-0.0390625,0.1508789-0.0859375,0.2055664-0.1015625
	c0.8540039-0.1884766,1.5664063,0.5205078,1.9135742,1.1943359c0.0488281,0.1113281,0.1425781,0.3251953,0.1425781,0.3251953
	C186.9746094,205.2504883,188.3837891,208.4887695,191.2949219,211.4155273z M363.7954102,267.6313477
	c-0.046875,1.5263672-0.699707,2.4785156-1.6708984,3.0791016c-2.2983398,1.4189453-6.4165039,0.8183594-8.7724609,0.8476563
	c-5.4970703,0.0683594-10.9931641,0.203125-16.4892578,0.3466797c-2.5546875,0.0654297-5.1171875,0.0820313-7.6689453,0.2216797
	c-1.6777344,0.0908203-4.0869141,0.578125-5.40625-0.7783203c-1.7792969-1.8291016,0.5214844-8.3955078-3.21875-6.2285156
	c-3.3623047,1.9472656-6.1875,4.3457031-9.9404297,5.6289063c-4.2871094,1.4658203-8.5439453,2.1464844-13.0507813,2.5566406
	c-7.4082031,0.6738281-15.0556641,0.0683594-22.3447266-1.4130859
	c-14.4560547-2.9365234-23.6484375-14.703125-28.1108398-27.9199219c-0.6621094-1.9609375-1.222168-3.9521484-1.6777344-5.953125
	c-0.9609375-4.2197266-1.3901367-8.5703125-1.6206055-12.8867188c-0.1401367-2.6181641-0.1816406-5.2412109-0.1616211-7.8662109
	c0.0283203-3.6689453,0.1875-7.3417969,0.4306641-11.0166016c0.659668-9.9726563,1.8994141-19.9492188,2.590332-29.8378906
	c0.0224609-0.3222656,0.0512695-0.6435547,0.0756836-0.9648438c0.2993164-3.9824219,0.7182617-7.9541016,1.0834961-11.9267578
	c0.331543-3.6044922,3.2353516-4.9931641,6.4941406-5.3056641c10.8579102-1.0449219,21.9628906-1.3110352,32.9023438-2.1489258
	c1.8037109-0.1376953,5.5820313-0.5546875,6.0761719,2.0375977c0.3876953,2.0351563-0.1933594,4.2236328-0.3818359,6.2519531
	c-0.21875,2.3544922-0.3486328,4.7158203-0.5791016,7.0693359c-0.3896484,3.984375-0.7753906,7.9697266-1.1611328,11.9541016
	c-0.7421875,7.6601563-1.3408203,15.3330078-2.0283203,22.9970703c-0.3447266,3.8417969-0.7158203,7.6816406-1.1503906,11.5146484
	c-0.6728516,5.9599609-0.3017578,13.2949219,4.5898438,17.5214844c5.3505859,4.6230469,13.2050781,5.1650391,19.1796875,1.3632813
	c6.2646484-3.9863281,7.1767578-11.1552734,7.1884766-17.890625c0.0185547-10.5771484-0.3652344-21.1484375-0.6728516-31.7197266
	c-0.1464844-5.0341797-0.09375-10.0732422-0.3115234-15.1054688c-0.1757813-4.0595703-0.390625-8.1230469-0.3544922-12.1865234
	c0.0195313-2.2734375-0.6748047-6.9643555,2.6298828-7.3608398c6.3457031-0.7607422,12.7480469-0.5332031,19.1240234-0.5478516
	c6.0849609-0.015625,12.171875-0.3232422,18.2548828-0.0585938c0.9677734,0.0419922,1.6542969,0.4189453,2.1469727,0.9990234
	c1.5600586,1.8349609,1.1298828,5.7514648,1.1293945,7.9331055c-0.0068359,15.3291016,0.6572266,30.6289063,1.1669922,45.9462891
	c0.4384766,13.1894531,0.8808594,26.3798828,1.3251953,39.5693359c0.1445313,4.2919922,0.2900391,8.5849609,0.4345703,12.8779297
	C363.9389648,262.0297852,363.8813477,264.831543,363.7954102,267.6313477z M538.2006836,212.7641602
	c-0.2910156,5.0966797-0.7607422,10.1806641-1.2265625,15.2636719c-0.4492188,4.9013672-0.9931641,9.7919922-1.4941406,14.6875
	c-0.3632813,3.5507813-0.8491211,7.0878906-1.3808594,10.6171875c-0.0888672,0.5898438-0.1762695,1.1796875-0.2675781,1.7695313
	c-0.3144531,2.03125-0.6425781,4.0605469-0.9746094,6.0898438c-0.2939453,1.8037109,0.0439453,4.7099609-1.8388672,5.7646484
	c-1.3193359,0.7392578-3.6845703,0.3066406-5.1259766,0.2646484c-3.3632813-0.0966797-6.6142578-0.8310547-9.9521484-1.1044922
	c-6.0068359-0.4912109-12.0097656-1.1015625-18.0097656-1.671875c-1.3740234-0.1308594-2.7480469-0.2529297-4.1220703-0.3837891
	c-3.9042969-0.3691406-2.2246094-5.8710938-1.7890625-8.1230469c0.6796875-3.5117188,1.3623047-7.0224609,2.0273438-10.5371094
	c2.2910156-12.1113281,4.3603516-24.7587891,4.3486328-37.1152344c-0.0039063-4.8613281,0.3945313-12.5869141-3.9980469-15.8476563
	c-3.0458984-2.2617188-7.796875-2.3730469-10.8720703-0.0019531c-3.9003906,3.0078125-3.9580078,8.4228516-4.3603516,12.8945313
	c-1.3017578,14.4628906-0.5644531,29.1005859-0.8300781,43.6054688c-0.1044922,5.7041016-0.1650391,11.4521484-0.7119141,17.1347656
	c-0.1992188,2.0644531-1.5371094,4.1279297-3.9248047,4.0546875c-2.8125-0.0859375-5.6494141-0.0683594-8.5058594-0.0966797
	c-5.7304688-0.0566406-11.5400391-0.1123047-17.3076172,0.0683594c-2.6474609,0.0830078-6.5703125,0.3886719-8.7216797-1.5048828
	c-1.6816406-1.4804688-1.203125-4.5048828-1.2519531-6.5537109c-0.1318359-5.4775391,0.0537109-10.9326172,0.1328125-16.4082031
	c0.0869141-6.0996094,0.0634766-12.1992188,0.0527344-18.2988281c-0.0126953-6.9785156-0.1962891-13.9423828-0.5400391-20.9121094
	c-0.2177734-4.3984375-0.4892578-9.4736328-3.2841797-13.1210938c-2.6435547-3.4501953-9.0722656-3.3056641-12.0839844-0.3154297
	c-4.4013672,4.3691406-3.7578125,14.3339844-3.9560547,20.0126953c-0.3144531,9.0087891,0.0058594,18.0400391,0.015625,27.0527344
	c0.0068359,6.5527344-0.0048828,13.1142578,0.0859375,19.6640625c0.0478516,3.4667969,0.4140625,7.6123047-3.8857422,7.6083984
	c-3.1201172-0.0029297-6.2333984,0.1445313-9.3515625,0.1435547c-4.3310547-0.0009766-8.6611328,0.0185547-12.9912109,0.1162109
	c-2.6162109,0.0585938-5.4443359,0.0654297-8.1738281,0.0625c-0.2919922-0.0009766-0.5820313-0.0009766-0.8710938-0.0019531
	c-0.9868164-0.0009766-2.1953125,0.1474609-3.2597656,0.0380859c-1.3115234-0.1347656-2.4047852-0.6630859-2.5908203-2.3603516
	c-0.3740234-3.4130859-0.0917969-6.9335938-0.1640625-10.3613281c-0.3964844-18.7753906-0.4697266-37.5546875-0.7285156-56.3330078
	c-0.0302734-2.4853516-0.0830078-4.9707031-0.1396484-7.4550781c-0.0566406-2.4970703-0.1220703-4.9931641-0.1875-7.4902344
	c-0.0673828-2.5087891-0.1347656-5.0166016-0.1972656-7.5253906c-0.0625-2.4970703-0.1201172-4.9941406-0.1650391-7.4912109
	c-0.046875-2.6337891-0.0761719-5.2675781-0.1582031-7.8994141c-0.0341797-1.0898438-0.0869141-2.1738281-0.0722656-3.2636719
	c0.0097656-0.7338867-0.0361328-1.5317383,0.3300781-2.1977539c0.2260742-0.4111328,0.5839844-0.65625,0.9887695-0.8105469
	c0.3378906-0.1289063,0.7075195-0.1982422,1.0727539-0.2246094c2.2216797-0.1591797,4.4511719-0.1738281,6.6777344-0.1611328
	c2.3505859,0.0136719,4.7021484,0.0019531,7.0527344-0.0205078c2.3134766-0.0205078,4.6259766-0.046875,6.9394531-0.0625
	c1.328125-0.0087891,2.6572266-0.0136719,3.9853516-0.0126953c1.0546875,0,2.1083984,0.0048828,3.1630859,0.0126953
	c2.1171875,0.0175781,4.2333984-0.0117188,6.3505859-0.0117188c0.5048828-0.0019531,1.0107422-0.0058594,1.515625-0.0019531
	c1.3251953,0.0078125,1.4365234,0.9345703,1.4150391,2.0341797c-0.0332031,1.6850586-0.046875,3.378418-0.0068359,5.0639648
	c0.0097656,0.5322266,0.0205078,1.0644531,0.0185547,1.5976563c-0.0009766,0.46875-0.0664063,0.9746094,0.109375,1.4208984
	c0.2363281,0.6054688,0.8662109,0.0849609,1.2402344-0.1542969c0.5820313-0.3720703,1.0820313-0.84375,1.6005859-1.296875
	c1.3193359-1.1503906,2.6376953-2.2763672,4.0292969-3.3408203c1.4462891-1.109375,2.9296875-2.1757813,4.5126953-3.0825195
	c0.5654297-0.3242188,1.1591797-0.6123047,1.75-0.8691406c4.2001953-1.8720703,8.9970703-2.5380859,13.5458984-1.859375
	c3.8369141,0.5732422,7.7197266,2.1914063,10.7998047,4.5766602c2.0673828,1.5996094,4.3388672,3.8974609,5.5917969,6.2197266
	c1.0390625,1.9257813,1.9101563,4.0595703,4.1035156,1.7822266c3.7353516-3.8769531,6.6513672-7.7382813,11.6787109-10.034668
	c5.4960938-2.5107422,11.6152344-3.5791016,17.6357422-3.5253906c12.5839844,0.1113281,25.9697266,5.2709961,34.7402344,14.418457
	c2.3691406,2.4716797,4.6435547,5.3525391,6.3125,8.3535156c0.1098633,0.1972656,0.2036133,0.4013672,0.3100586,0.6005859
	C538.7973633,187.0512695,538.9018555,200.4760742,538.2006836,212.7641602z M711.2783203,212.8168945
	c-0.2910156,5.0966797-0.7597656,10.1806641-1.2265625,15.2636719c-0.4492188,4.9013672-0.9921875,9.7919922-1.4941406,14.6875
	c-0.4238281,4.1445313-1.0097656,8.2705078-1.6484375,12.3867188c-0.3144531,2.03125-0.6425781,4.0605469-0.9746094,6.0898438
	c-0.2929688,1.8037109,0.0449219,4.7099609-1.8378906,5.7646484c-1.3203125,0.7392578-3.6855469,0.3066406-5.1269531,0.2646484
	c-3.3632813-0.0966797-6.6132813-0.8310547-9.9511719-1.1044922c-6.0078125-0.4912109-12.0097656-1.1015625-18.0097656-1.671875
	c-1.375-0.1308594-2.7480469-0.2529297-4.1230469-0.3837891c-3.9042969-0.3691406-2.2246094-5.8710938-1.7890625-8.1230469
	c0.6796875-3.5117188,1.3632813-7.0224609,2.0273438-10.5371094c2.2910156-12.1113281,4.3613281-24.7587891,4.3496094-37.1152344
	c-0.0039063-4.8613281,0.3945313-12.5869141-3.9980469-15.8476563c-3.046875-2.2617188-7.796875-2.3730469-10.8730469-0.0019531
	c-3.9003906,3.0078125-3.9570313,8.4228516-4.359375,12.8945313c-1.3027344,14.4628906-0.5644531,29.1005859-0.8300781,43.6054688
	c-0.1054688,5.7041016-0.1660156,11.4521484-0.7128906,17.1347656c-0.1992188,2.0644531-1.5371094,4.1279297-3.9238281,4.0546875
	c-2.8125-0.0859375-5.6503906-0.0683594-8.5058594-0.0966797c-5.7304688-0.0566406-11.5410156-0.1123047-17.3085938,0.0683594
	c-2.6464844,0.0830078-6.5703125,0.3886719-8.7207031-1.5048828c-1.6816406-1.4804688-1.203125-4.5048828-1.2519531-6.5537109
	c-0.1328125-5.4775391,0.0527344-10.9326172,0.1328125-16.4082031c0.0859375-6.0996094,0.0625-12.1992188,0.0527344-18.2988281
	c-0.0136719-6.9785156-0.1972656-13.9423828-0.5410156-20.9121094c-0.2167969-4.3984375-0.4882813-9.4736328-3.2832031-13.1210938
	c-2.6445313-3.4501953-9.0722656-3.3056641-12.0839844-0.3154297c-4.4023438,4.3691406-3.7578125,14.3339844-3.9570313,20.0126953
	c-0.3144531,9.0087891,0.0058594,18.0400391,0.015625,27.0527344c0.0078125,6.5527344-0.0039063,13.1142578,0.0859375,19.6640625
	c0.0488281,3.4667969,0.4140625,7.6123047-3.8847656,7.6083984c-3.1210938-0.0029297-6.234375,0.1445313-9.3515625,0.1435547
	c-4.3320313-0.0009766-8.6621094,0.0185547-12.9921875,0.1162109c-2.6152344,0.0585938-5.4433594,0.0654297-8.1733398,0.0625
	c-0.2919922-0.0009766-0.5820313-0.0009766-0.8710938-0.0019531c-2.2021484-0.0029297-5.5136719,0.7529297-5.8505859-2.3222656
	c-0.3740234-3.4130859-0.0917969-6.9335938-0.1640625-10.3613281c-0.0039063-0.1904297-0.0058594-0.3808594-0.0097656-0.5712891
	c-0.3862305-18.5849609-0.4624023-37.1738281-0.71875-55.7617188c-0.0302734-2.4853516-0.0830078-4.9707031-0.1396484-7.4550781
	c-0.0566406-2.4970703-0.1220703-4.9931641-0.1875-7.4902344c-0.0673828-2.5087891-0.1347656-5.0166016-0.1972656-7.5253906
	c-0.034668-1.3798828-0.0610352-2.7597656-0.0913086-4.140625c-0.0244141-1.1162109-0.0537109-2.2333984-0.0737305-3.3505859
	c-0.046875-2.6337891-0.0761719-5.2675781-0.1582031-7.8994141c-0.0341797-1.0898438-0.0869141-2.1738281-0.0722656-3.2636719
	c0.0097656-0.7338867-0.0361328-1.5317383,0.3300781-2.1977539c0.4150391-0.7539063,1.2587891-0.9775391,2.0615234-1.0351563
	c2.2216797-0.1591797,4.4511719-0.1738281,6.6772461-0.1611328c2.3515625,0.0136719,4.703125,0.0019531,7.0527344-0.0205078
	c2.3144531-0.0205078,4.6269531-0.046875,6.9394531-0.0625c1.328125-0.0087891,2.6582031-0.0136719,3.9863281-0.0126953
	c1.0546875,0,2.1074219,0.0048828,3.1621094,0.0126953c2.1171875,0.0175781,4.234375-0.0117188,6.3515625-0.0117188
	c0.5039063-0.0019531,1.0097656-0.0058594,1.515625-0.0019531c1.3242188,0.0078125,1.4355469,0.9345703,1.4140625,2.0341797
	c-0.0332031,1.6850586-0.046875,3.378418-0.0058594,5.0629883c0.0097656,0.5332031,0.0195313,1.0654297,0.0175781,1.5986328
	c0,0.46875-0.0664063,0.9746094,0.109375,1.4208984c0.2363281,0.6054688,0.8671875,0.0849609,1.2402344-0.1542969
	c0.5820313-0.3720703,1.0820313-0.84375,1.6015625-1.296875c1.3183594-1.1503906,2.6367188-2.2763672,4.0292969-3.3408203
	c1.4453125-1.109375,2.9296875-2.1757813,4.5117188-3.0825195c0.5664063-0.3242188,1.1601563-0.6123047,1.75-0.8691406
	c4.2011719-1.8720703,8.9980469-2.5380859,13.546875-1.859375c3.8359375,0.5732422,7.71875,2.1914063,10.7988281,4.5766602
	c2.0683594,1.5996094,4.3398438,3.8974609,5.5917969,6.2197266c1.0390625,1.9257813,1.9101563,4.0595703,4.1035156,1.7822266
	c3.7363281-3.8769531,6.6523438-7.7382813,11.6796875-10.034668c5.4960938-2.5107422,11.6152344-3.5791016,17.6347656-3.5253906
	c12.5839844,0.1113281,25.9707031,5.2709961,34.7402344,14.418457c2.3691406,2.4716797,4.6445313,5.3525391,6.3125,8.3535156
	C711.8857422,186.6176758,711.9931641,200.309082,711.2783203,212.8168945z"/>
<linearGradient id="XMLID_1_" gradientUnits="userSpaceOnUse" x1="970.9423828" y1="21.8491211" x2="970.9423828" y2="290.293457">
	<stop  offset="0" style="stop-color:#ECEFEB"/>
	<stop  offset="0.1745641" style="stop-color:#EAECE9"/>
	<stop  offset="0.2795568" style="stop-color:#E1E4E0"/>
	<stop  offset="0.3661377" style="stop-color:#D3D6D3"/>
	<stop  offset="0.4427162" style="stop-color:#C0C1BF"/>
	<stop  offset="0.5126544" style="stop-color:#A6A7A6"/>
	<stop  offset="0.5768872" style="stop-color:#878787"/>
	<stop  offset="0.6" style="stop-color:#7A7A7A"/>
	<stop  offset="1" style="stop-color:#343732"/>
</linearGradient>
<path fill="url(#XMLID_1_)" d="M866.7080078,28.0234375l-34.3125,230.3344727
	c-0.2773438,1.8662109,0.2021484,3.6962891,1.3505859,5.1533203c1.1494141,1.4570313,2.8183594,2.3496094,4.6992188,2.5136719
	l31.7871094,2.7763672c3.7900391,0.3310547,7.3007813-2.4658203,7.8242188-6.234375
	c0,0,17.4443359-125.4858398,18.5673828-133.5693359c2.2939453,7.8745117,41.0517578,140.9619141,41.0517578,140.9619141
	c0.9951172,3.4140625,4.5429688,6.3828125,8.078125,6.7597656l21.203125,2.2548828
	c3.5136719,0.3730469,7.6484375-1.7314453,9.4140625-4.7919922c0,0,67.7490234-117.4916992,71.5322266-124.0532227
	c-0.6455078,7.5004883-11.0585938,128.527832-11.0585938,128.527832c-0.0175781,0.203125-0.0263672,0.4052734-0.0263672,0.6054688
	c0,3.5771484,2.7392578,6.6767578,6.3574219,7.0517578l38.0976563,3.9414063
	c1.859375,0.1923828,3.6787109-0.3564453,5.1210938-1.5458984c1.4433594-1.1884766,2.3291016-2.8691406,2.4951172-4.7314453
	l20.6494141-231.5898438c0.1650391-1.8583984-0.40625-3.671875-1.609375-5.1074219s-2.8886719-2.3149414-4.7470703-2.4765625
	l-35.7626953-3.1098633c-3.5224609-0.3061523-7.6123047,1.8833008-9.3095703,4.9848633l-88.6367188,161.8701172
	c-0.0048828,0.0087891-0.0068359,0.0087891-0.0117188,0.0175781c-0.0019531-0.0087891-0.0039063-0.0097656-0.0068359-0.0185547
	L922.0253906,32.6503906c-0.9306641-3.4536133-4.4482422-6.4399414-8.0068359-6.7978516l-39.4208984-3.9682617
	C870.8085938,21.5029297,867.2695313,24.2568359,866.7080078,28.0234375z"/>
<path d="M1119.4257813,37.6450195c-3.7802734-4.5102539-9.0878906-7.2749023-14.9433594-7.7841797l-35.7626953-3.1098633
	c-9.4433594-0.8212891-19.2167969,4.4121094-23.7675781,12.7260742c0,0-47.9160156,87.5048828-70.7236328,129.1572266
	c-12.2822266-45.5493164-37.7197266-139.8891602-37.7197266-139.8891602
	c-2.5625-9.5043945-11.1933594-16.831543-20.9882813-17.8173828l-39.4199219-3.9682617
	c-11.8339844-1.190918-22.4755859,7.090332-24.2285156,18.8535156l-34.3125,230.3349609
	c-0.8808594,5.9130859,0.7265625,11.9833984,4.4101563,16.6533203s9.2128906,7.6464844,15.1708984,8.1669922l31.7861328,2.7763672
	c11.8164063,1.03125,22.3525391-7.3623047,23.9873047-19.1103516c0,0,4.4785156-32.21875,8.9140625-64.1230469
	c10.7197266,36.8125,21.4453125,73.6416016,21.4453125,73.6416016c2.7021484,9.2724609,11.2939453,16.4599609,20.8935547,17.4814453
	l21.2041016,2.2548828c9.4013672,1.0009766,19.2675781-4.0205078,23.9931641-12.2109375
	c0,0,18.9179688-32.8095703,37.8066406-65.5654297c-2.6210938,30.4550781-5.2714844,61.2587891-5.2714844,61.2587891
	c-0.0546875,0.6318359-0.0810547,1.2607422-0.0810547,1.8847656c0,11.1474609,8.5351563,20.8105469,19.8125,21.9775391
	l38.0996094,3.9423828c5.8837891,0.6083984,11.6396484-1.1279297,16.2050781-4.8916016s7.3691406-9.0820313,7.8945313-14.9755859
	l20.6494141-231.5888672C1125.0019531,47.8647461,1123.2070313,42.15625,1119.4257813,37.6450195z M1059.8642578,47.6396484
	c1.3203125-2.4121094,4.6425781-4.190918,7.3828125-3.9526367l11.7753906,1.0239258l-12.0712891,36.2128906h-25.3125
	L1059.8642578,47.6396484z M874.3974609,23.8740234l39.4208984,3.9682617
	c2.7363281,0.2753906,5.5605469,2.6733398,6.2763672,5.3286133l10.8837891,40.3652344H885.265625h-1.0966797l-0.3330078,1.0454102
	l-5.9072266,18.5688477h-18.9003906l9.6582031-64.8320313C869.0917969,25.5986328,871.6611328,23.5986328,874.3974609,23.8740234z
	 M855.4580078,203.7700195l6.9287109,3.7675781l0.3349609,0.1826172h0.3818359h20.5585938l-2.8876953,20.7734375
	l-41.1777344-4.8974609l2.9658203-19.9101563L855.4580078,203.7700195z M870.40625,266.809082l-31.7871094-2.7763672
	c-2.7402344-0.2392578-4.6503906-2.6601563-4.2451172-5.3798828l4.7802734-32.0888672l41.2070313,4.9013672l-4.2851563,30.8261719
	C875.6972656,265.0151367,873.1464844,267.0483398,870.40625,266.809082z M897.3291016,124.2641602
	c-0.7695313-2.640625-1.7080078-2.5722656-2.0869141,0.1513672l-11.1630859,80.3046875H863.484375l-6.9238281-3.765625
	l-0.3310547-0.1796875l-0.3759766-0.0029297l-12.8447266-0.0830078l15.5732422-104.5385742h20.4433594h1.0966797
	l0.3330078-1.0454102l5.9072266-18.5688477h45.4257813l21.8896484,81.1801758h-21.3486328h-1.5v1.5v54.7470703h-7.3779297
	L897.3291016,124.2641602z M1081.4794922,288.2661133l-18.4150391-1.9052734l1.8515625-26.3554688l9.5361328-1.2568359
	l0.7949219-0.1044922l0.3544922-0.7197266l2.421875-4.9130859h11.6191406l-2.7451172,30.7890625
	C1086.6533203,286.5395508,1084.2148438,288.5493164,1081.4794922,288.2661133z M1089.9101563,250.0112305h-12.8203125h-0.9326172
	l-0.4130859,0.8369141l-2.4794922,5.0302734l-9.9550781,1.3125l-1.2138672,0.1601563l-0.0859375,1.2216797l-1.9306641,27.4794922
	l-16.6972656-1.7275391c-2.7353516-0.2832031-4.78125-2.7568359-4.5449219-5.4960938l6.7539063-78.4980469h20.6572266h1.4960938
	l0.0039063-1.4960938l0.1259766-47.8139648l8.5566406-30.921875l25.0537109,0.1020508L1089.9101563,250.0112305z
	 M1101.7519531,117.2016602l-26.4550781-0.1079102l-1.1455078-0.0048828l-0.3056641,1.1049805l-8.9160156,32.2211914
	l-0.0537109,0.1943359l-0.0009766,0.2021484l-0.1230469,46.519043h-18.9023438l4.3896484-51.0170898
	c0.2363281-2.7392578-0.6953125-3.0322266-2.0693359-0.6503906l-73.53125,127.5200195
	c-1.3740234,2.3818359-4.7353516,4.0927734-7.4697266,3.8017578l-21.203125-2.2548828
	c-2.734375-0.2910156-5.6005859-2.6894531-6.3701172-5.3300781l-15.2705078-52.4365234h8.0039063h1.5v-1.5v-54.7470703h20.6572266
	l13.0380859,48.3525391c0.7158203,2.6542969,2.3828125,2.8535156,3.703125,0.4414063l68.7685547-125.5864258h28.0361328h1.0810547
	l0.3417969-1.0258789l12.6396484-37.9199219l20.9150391,1.8188477c2.7402344,0.2382813,4.78125,2.6743164,4.5371094,5.4135742
	L1101.7519531,117.2016602z"/>
<linearGradient id="XMLID_2_" gradientUnits="userSpaceOnUse" x1="742.8076172" y1="15.8920898" x2="742.8076172" y2="271.6411133">
	<stop  offset="0" style="stop-color:#ECEFEB"/>
	<stop  offset="0.1745641" style="stop-color:#EAECE9"/>
	<stop  offset="0.2795568" style="stop-color:#E1E4E0"/>
	<stop  offset="0.3661377" style="stop-color:#D3D6D3"/>
	<stop  offset="0.4427162" style="stop-color:#C0C1BF"/>
	<stop  offset="0.5126544" style="stop-color:#A6A7A6"/>
	<stop  offset="0.5768872" style="stop-color:#878787"/>
	<stop  offset="0.6" style="stop-color:#7A7A7A"/>
	<stop  offset="1" style="stop-color:#343732"/>
</linearGradient>
<path fill="url(#XMLID_2_)" d="M837.1728516,16.027832L837.1728516,16.027832l-36.5976563,7.3735352
	c-3.5292969,0.7114258-6.6777344,4.0625-7.1689453,7.628418c0,0-20.4140625,148.3183594-20.6689453,150.1708984
	c-0.9160156-1.6298828-74.625-132.7734375-74.625-132.7734375c-1.7753906-3.1586914-5.9462891-5.0585938-9.4951172-4.3251953
	l-42.1464844,8.7099609c-1.9248047,0.3974609-3.4316406,1.5380859-4.1337891,3.128418
	c-0.7021484,1.5908203-0.5292969,3.4726563,0.4736328,5.1625977L765.1347656,267.190918
	c1.8310547,3.0859375,6.0283203,4.9824219,9.5556641,4.3173828l21.3388672-4.0322266
	c3.5214844-0.6640625,6.7490234-3.953125,7.3476563-7.4882813l40.2304688-237.7236328
	c0.3310547-1.9516602-0.1904297-3.7602539-1.4306641-4.9614258C840.9375,16.1010742,839.1132813,15.6367188,837.1728516,16.027832z"
	/>
<path d="M854.3017578,4.7939453c-4.0205078-3.8969727-9.7011719-5.5644531-15.1894531-4.4584961l-46.4003906,9.3491211
	c-7.0888672,1.4282227-12.4980469,7.184082-13.4833984,14.347168c0,0-8.7255859,63.3920898-15.2685547,110.9365234
	C740.3505859,92.9638672,708.7382813,36.71875,708.7382813,36.71875
	c-3.6259766-6.4521484-11.0117188-9.8164063-18.2597656-8.3183594l-51.9404297,10.734375
	c-5.3818359,1.1118164-9.8935547,4.7563477-12.1123047,9.7832031c-2.21875,5.0273438-1.8710938,10.8164063,0.9335938,15.5415039
	l127.4277344,214.6875c3.6484375,6.1464844,10.7509766,9.3544922,17.7744141,8.0283203l31.1650391-5.8867188
	c6.9902344-1.3212891,12.4189453-6.8544922,13.6064453-13.8681641l41.8984375-247.5834961
	C860.1660156,14.3168945,858.3222656,8.6904297,854.3017578,4.7939453z M795.3876953,31.3027344
	c0.375-2.7241211,2.8876953-5.3974609,5.5830078-5.940918l13.8916016-2.7988281v10.6147461l-3.4785156,3.0834961
	l-0.5048828,0.4477539v0.6748047v7.7373047l-3.5791016,3.8232422l-0.4052734,0.4326172v0.5927734v23.4765625l-4.6601563,3.9077148
	h-13.1845703L795.3876953,31.3027344z M677.9902344,92.3251953h1.5v-1.5V72.3613281h13.3974609h0.7607422l0.4492188-0.6137695
	l2.6513672-3.6210938h10.1416016l45.3261719,80.6459961l-36.8134766,30.7133789l-51.7353516-87.1606445H677.9902344z
	 M646.875,54.7705078l42.1474609-8.7099609c2.6933594-0.5566406,5.9990234,0.9492188,7.3466797,3.3466797l8.8349609,15.7192383
	h-9.2158203h-0.7607422l-0.4492188,0.6137695l-2.6513672,3.6210938h-14.1367188h-1.5v1.5v18.4638672h-14.6025391
	l-17.3574219-29.2426758C643.1269531,57.7177734,644.1816406,55.3271484,646.875,54.7705078z M801.4052734,259.6538086
	c-0.4589844,2.7109375-3.0449219,5.3476563-5.7470703,5.8574219l-21.3388672,4.03125
	c-2.7021484,0.5097656-6.0615234-1.0068359-7.4648438-3.3720703l-15.0917969-25.4267578l30.2587891-11.1708984l0.9804688-0.3623047
	v-1.0449219v-13.5664063l7.5146484-5.7548828l10.6230469,0.0859375l0.5244141,0.0039063l0.4140625-0.3242188l9.1865234-7.2128906
	L801.4052734,259.6538086z M805.8896484,132.1845703l3.9453125-3.8588867l0.4511719-0.4414063v-0.6308594v-7.097168h14.7265625
	l-7.0253906,41.5131836h-12.1855469L805.8896484,132.1845703z M841.6357422,21.9306641L825.5205078,117.15625h-16.734375h-1.5v1.5
	v7.9663086l-3.9433594,3.8569336l-0.4492188,0.4394531l-0.0019531,0.628418l-0.0947266,31.6171875l-0.0048828,1.5048828h1.5048828
	h13.1826172l-5.4707031,32.328125l-11.3710938,8.9287109l-10.6123047-0.0859375l-0.5146484-0.0039063l-0.4091797,0.3134766
	l-8.5117188,6.5185547l-0.5878906,0.4501953v0.7402344v13.2617188l-29.796875,11l-33.2519531-56.0224609l36.7578125-30.6665039
	l17.7470703,31.574707c1.3476563,2.3974609,2.7568359,2.1289063,3.1318359-0.5947266l14.046875-102.0576172h14.1435547h0.5458984
	l0.4179688-0.3505859l5.6142578-4.7080078l0.5361328-0.449707v-0.699707V50.5625l3.5791016-3.8232422l0.4052734-0.4326172
	v-0.5927734v-7.6552734l3.4785156-3.0834961l0.5048828-0.4477539v-0.6748047v-11.894043l19.7060547-3.9702148
	C840.2636719,17.4448242,842.0947266,19.21875,841.6357422,21.9306641z"/>
<path fill="#A3B706" d="M561.0092773,256.6958008c-0.2919922-0.0009766-0.5820313-0.0009766-0.8710938-0.0019531
	c-2.2021484-0.0029297-5.5136719,0.7529297-5.8505859-2.3222656c-0.3740234-3.4130859-0.0917969-6.9335938-0.1640625-10.3613281
	c-0.3964844-18.7753906-0.4697266-37.5546875-0.7285156-56.3330078c-0.0302734-2.4853516-0.0830078-4.9707031-0.1396484-7.4550781
	c-0.0566406-2.4970703-0.1220703-4.9931641-0.1875-7.4902344c-0.0673828-2.5087891-0.1347656-5.0166016-0.1972656-7.5253906
	c-0.0625-2.4970703-0.1201172-4.9941406-0.1650391-7.4912109c-0.046875-2.6333008-0.0761719-5.2670898-0.1582031-7.8999023
	c-0.0341797-1.0888672-0.0869141-2.1738281-0.0722656-3.2636719c0.0097656-0.7333984-0.0361328-1.53125,0.3300781-2.1972656
	c0.4150391-0.7539063,1.2587891-0.9775391,2.0615234-1.0351563c2.2216797-0.1591797,4.4511719-0.1738281,6.6772461-0.1611328
	c2.3515625,0.0136719,4.703125,0.0019531,7.0527344-0.0205078c2.3144531-0.0205078,4.6269531-0.046875,6.9394531-0.0625
	c1.328125-0.0087891,2.6582031-0.0136719,3.9863281-0.0126953c1.0546875,0,2.1074219,0.0048828,3.1621094,0.0126953
	c2.1171875,0.0175781,4.234375-0.0117188,6.3515625-0.0117188c0.5039063-0.0019531,1.0097656-0.0058594,1.515625-0.0019531
	c1.3242188,0.0078125,1.4355469,0.9345703,1.4140625,2.0341797c-0.0332031,1.6845703-0.046875,3.3789063-0.0058594,5.0634766
	c0.0097656,0.5332031,0.0195313,1.0654297,0.0175781,1.5986328c0,0.46875-0.0664063,0.9746094,0.109375,1.4208984
	c0.2363281,0.6054688,0.8671875,0.0849609,1.2402344-0.1542969c0.5820313-0.3720703,1.0820313-0.84375,1.6015625-1.296875
	c1.3183594-1.1503906,2.6367188-2.2773438,4.0292969-3.3417969c1.4453125-1.1083984,2.9296875-2.1748047,4.5117188-3.0820313
	c0.5664063-0.3242188,1.1601563-0.6123047,1.75-0.8691406c4.2011719-1.8720703,8.9980469-2.5380859,13.546875-1.859375
	c3.8359375,0.5732422,7.71875,2.1914063,10.7988281,4.5761719c2.0683594,1.6005859,4.3398438,3.8984375,5.5917969,6.2207031
	c1.0390625,1.9257813,1.9101563,4.059082,4.1035156,1.7822266c3.7363281-3.8769531,6.6523438-7.7382813,11.6796875-10.0351563
	c5.4960938-2.5107422,11.6152344-3.5791016,17.6347656-3.5253906c12.5839844,0.1113281,25.9707031,5.2705078,34.7402344,14.4189453
	c2.3691406,2.4711914,4.6445313,5.3520508,6.3125,8.3530273c6.2578125,11.2519531,6.3652344,24.9433594,5.6503906,37.4511719
	c-0.2910156,5.0966797-0.7597656,10.1806641-1.2265625,15.2636719c-0.4492188,4.9013672-0.9921875,9.7919922-1.4941406,14.6875
	c-0.4238281,4.1445313-1.0097656,8.2705078-1.6484375,12.3867188c-0.3144531,2.03125-0.6425781,4.0605469-0.9746094,6.0898438
	c-0.2929688,1.8037109,0.0449219,4.7099609-1.8378906,5.7646484c-1.3203125,0.7392578-3.6855469,0.3066406-5.1269531,0.2646484
	c-3.3632813-0.0966797-6.6132813-0.8310547-9.9511719-1.1044922c-6.0078125-0.4912109-12.0097656-1.1015625-18.0097656-1.671875
	c-1.375-0.1308594-2.7480469-0.2529297-4.1230469-0.3837891c-3.9042969-0.3691406-2.2246094-5.8710938-1.7890625-8.1230469
	c0.6796875-3.5117188,1.3632813-7.0224609,2.0273438-10.5371094c2.2910156-12.1113281,4.3613281-24.7587891,4.3496094-37.1152344
	c-0.0039063-4.8613281,0.3945313-12.5869141-3.9980469-15.8476563c-3.046875-2.2617188-7.796875-2.3730469-10.8730469-0.0019531
	c-3.9003906,3.0078125-3.9570313,8.4228516-4.359375,12.8945313c-1.3027344,14.4628906-0.5644531,29.1005859-0.8300781,43.6054688
	c-0.1054688,5.7041016-0.1660156,11.4521484-0.7128906,17.1347656c-0.1992188,2.0644531-1.5371094,4.1279297-3.9238281,4.0546875
	c-2.8125-0.0859375-5.6503906-0.0683594-8.5058594-0.0966797c-5.7304688-0.0566406-11.5410156-0.1123047-17.3085938,0.0683594
	c-2.6464844,0.0830078-6.5703125,0.3886719-8.7207031-1.5048828c-1.6816406-1.4804688-1.203125-4.5048828-1.2519531-6.5537109
	c-0.1328125-5.4775391,0.0527344-10.9326172,0.1328125-16.4082031c0.0859375-6.0996094,0.0625-12.1992188,0.0527344-18.2988281
	c-0.0136719-6.9785156-0.1972656-13.9423828-0.5410156-20.9121094c-0.2167969-4.3984375-0.4882813-9.4736328-3.2832031-13.1210938
	c-2.6445313-3.4501953-9.0722656-3.3056641-12.0839844-0.3154297c-4.4023438,4.3691406-3.7578125,14.3339844-3.9570313,20.0126953
	c-0.3144531,9.0087891,0.0058594,18.0400391,0.015625,27.0527344c0.0078125,6.5527344-0.0039063,13.1142578,0.0859375,19.6640625
	c0.0488281,3.4667969,0.4140625,7.6123047-3.8847656,7.6083984c-3.1210938-0.0029297-6.234375,0.1445313-9.3515625,0.1435547
	c-4.3320313-0.0009766-8.6621094,0.0185547-12.9921875,0.1162109
	C566.5673828,256.6918945,563.7392578,256.6987305,561.0092773,256.6958008z"/>
<path fill="#A3B706" d="M387.9311523,256.6430664c-0.2919922-0.0009766-0.5820313-0.0009766-0.8710938-0.0019531
	c-2.2021484-0.0029297-5.5136719,0.7529297-5.8505859-2.3222656c-0.3740234-3.4130859-0.0917969-6.9335938-0.1640625-10.3613281
	c-0.3964844-18.7753906-0.4697266-37.5546875-0.7285156-56.3330078c-0.0302734-2.4853516-0.0830078-4.9707031-0.1396484-7.4550781
	c-0.0566406-2.4970703-0.1220703-4.9931641-0.1875-7.4902344c-0.0673828-2.5087891-0.1347656-5.0166016-0.1972656-7.5253906
	c-0.0625-2.4970703-0.1201172-4.9941406-0.1650391-7.4912109c-0.046875-2.6333008-0.0761719-5.2670898-0.1582031-7.8999023
	c-0.0341797-1.0888672-0.0869141-2.1738281-0.0722656-3.2636719c0.0097656-0.7333984-0.0361328-1.53125,0.3300781-2.1972656
	c0.4150391-0.7539063,1.2587891-0.9775391,2.0615234-1.0351563c2.2216797-0.1591797,4.4511719-0.1738281,6.6777344-0.1611328
	c2.3505859,0.0136719,4.7021484,0.0019531,7.0527344-0.0205078c2.3134766-0.0205078,4.6259766-0.046875,6.9394531-0.0625
	c1.328125-0.0087891,2.6572266-0.0136719,3.9853516-0.0126953c1.0546875,0,2.1083984,0.0048828,3.1630859,0.0126953
	c2.1171875,0.0175781,4.2333984-0.0117188,6.3505859-0.0117188c0.5048828-0.0019531,1.0107422-0.0058594,1.515625-0.0019531
	c1.3251953,0.0078125,1.4365234,0.9345703,1.4150391,2.0341797c-0.0332031,1.6845703-0.046875,3.3789063-0.0068359,5.0634766
	c0.0097656,0.5332031,0.0205078,1.0654297,0.0185547,1.5986328c-0.0009766,0.46875-0.0664063,0.9746094,0.109375,1.4208984
	c0.2363281,0.6054688,0.8662109,0.0849609,1.2402344-0.1542969c0.5820313-0.3720703,1.0820313-0.84375,1.6005859-1.296875
	c1.3193359-1.1503906,2.6376953-2.2773438,4.0292969-3.3417969c1.4462891-1.1083984,2.9296875-2.1748047,4.5126953-3.0820313
	c0.5654297-0.3242188,1.1591797-0.6123047,1.75-0.8691406c4.2001953-1.8720703,8.9970703-2.5380859,13.5458984-1.859375
	c3.8369141,0.5732422,7.7197266,2.1914063,10.7998047,4.5761719c2.0673828,1.6005859,4.3388672,3.8984375,5.5917969,6.2207031
	c1.0390625,1.9257813,1.9101563,4.059082,4.1035156,1.7822266c3.7353516-3.8769531,6.6513672-7.7382813,11.6787109-10.0351563
	c5.4960938-2.5107422,11.6152344-3.5791016,17.6357422-3.5253906c12.5839844,0.1113281,25.9697266,5.2705078,34.7402344,14.4189453
	c2.3691406,2.4711914,4.6435547,5.3520508,6.3125,8.3530273c6.2578125,11.2519531,6.3642578,24.9433594,5.6503906,37.4511719
	c-0.2910156,5.0966797-0.7607422,10.1806641-1.2265625,15.2636719c-0.4492188,4.9013672-0.9931641,9.7919922-1.4941406,14.6875
	c-0.4238281,4.1445313-1.0107422,8.2705078-1.6484375,12.3867188c-0.3144531,2.03125-0.6425781,4.0605469-0.9746094,6.0898438
	c-0.2939453,1.8037109,0.0439453,4.7099609-1.8388672,5.7646484c-1.3193359,0.7392578-3.6845703,0.3066406-5.1259766,0.2646484
	c-3.3632813-0.0966797-6.6142578-0.8310547-9.9521484-1.1044922c-6.0068359-0.4912109-12.0097656-1.1015625-18.0097656-1.671875
	c-1.3740234-0.1308594-2.7480469-0.2529297-4.1220703-0.3837891c-3.9042969-0.3691406-2.2246094-5.8710938-1.7890625-8.1230469
	c0.6796875-3.5117188,1.3623047-7.0224609,2.0273438-10.5371094c2.2910156-12.1113281,4.3603516-24.7587891,4.3486328-37.1152344
	c-0.0039063-4.8613281,0.3945313-12.5869141-3.9980469-15.8476563c-3.0458984-2.2617188-7.796875-2.3730469-10.8720703-0.0019531
	c-3.9003906,3.0078125-3.9580078,8.4228516-4.3603516,12.8945313c-1.3017578,14.4628906-0.5644531,29.1005859-0.8300781,43.6054688
	c-0.1044922,5.7041016-0.1650391,11.4521484-0.7119141,17.1347656c-0.1992188,2.0644531-1.5371094,4.1279297-3.9248047,4.0546875
	c-2.8125-0.0859375-5.6494141-0.0683594-8.5058594-0.0966797c-5.7304688-0.0566406-11.5400391-0.1123047-17.3076172,0.0683594
	c-2.6474609,0.0830078-6.5703125,0.3886719-8.7216797-1.5048828c-1.6816406-1.4804688-1.203125-4.5048828-1.2519531-6.5537109
	c-0.1318359-5.4775391,0.0537109-10.9326172,0.1328125-16.4082031c0.0869141-6.0996094,0.0634766-12.1992188,0.0527344-18.2988281
	c-0.0126953-6.9785156-0.1962891-13.9423828-0.5400391-20.9121094c-0.2177734-4.3984375-0.4892578-9.4736328-3.2841797-13.1210938
	c-2.6435547-3.4501953-9.0722656-3.3056641-12.0839844-0.3154297c-4.4013672,4.3691406-3.7578125,14.3339844-3.9560547,20.0126953
	c-0.3144531,9.0087891,0.0058594,18.0400391,0.015625,27.0527344c0.0068359,6.5527344-0.0048828,13.1142578,0.0859375,19.6640625
	c0.0478516,3.4667969,0.4140625,7.6123047-3.8857422,7.6083984c-3.1201172-0.0029297-6.2333984,0.1445313-9.3515625,0.1435547
	c-4.3310547-0.0009766-8.6611328,0.0185547-12.9912109,0.1162109
	C393.4887695,256.6391602,390.6606445,256.6459961,387.9311523,256.6430664z"/>
<path fill="#A3B706" d="M251.8422852,152.5205078c0.331543-3.6054688,3.2353516-4.9931641,6.4941406-5.3066406
	c10.8579102-1.0449219,21.9628906-1.3105469,32.9023438-2.1484375c1.8037109-0.1376953,5.5820313-0.5546875,6.0761719,2.0380859
	c0.3876953,2.0351563-0.1933594,4.2236328-0.3818359,6.2519531c-0.21875,2.3544922-0.3486328,4.715332-0.5791016,7.0688477
	c-0.3896484,3.984375-0.7753906,7.9697266-1.1611328,11.9541016c-0.7421875,7.6601563-1.3408203,15.3330078-2.0283203,22.9970703
	c-0.3447266,3.8417969-0.7158203,7.6816406-1.1503906,11.5146484c-0.6728516,5.9599609-0.3017578,13.2949219,4.5898438,17.5214844
	c5.3505859,4.6230469,13.2050781,5.1650391,19.1796875,1.3632813c6.2646484-3.9863281,7.1767578-11.1552734,7.1884766-17.890625
	c0.0185547-10.5771484-0.3652344-21.1484375-0.6728516-31.7197266c-0.1464844-5.0341797-0.09375-10.0732422-0.3115234-15.1054688
	c-0.1757813-4.059082-0.390625-8.1225586-0.3544922-12.1870117c0.0195313-2.2734375-0.6748047-6.9638672,2.6298828-7.3603516
	c6.3457031-0.7607422,12.7480469-0.5332031,19.1240234-0.5478516c6.0849609-0.015625,12.171875-0.3232422,18.2548828-0.0585938
	c4.03125,0.1757813,3.2773438,6.0615234,3.2763672,8.9326172c-0.0068359,15.3286133,0.6572266,30.628418,1.1669922,45.9458008
	c0.4384766,13.1894531,0.8808594,26.3798828,1.3251953,39.5693359c0.1445313,4.2919922,0.2900391,8.5849609,0.4345703,12.8779297
	c0.09375,2.7988281,0.0361328,5.6005859-0.0498047,8.4003906c-0.1572266,5.1367188-7.0917969,3.8847656-10.4433594,3.9267578
	c-5.4970703,0.0683594-10.9931641,0.203125-16.4892578,0.3466797c-2.5546875,0.0654297-5.1171875,0.0820313-7.6689453,0.2216797
	c-1.6777344,0.0908203-4.0869141,0.578125-5.40625-0.7783203c-1.7792969-1.8291016,0.5214844-8.3955078-3.21875-6.2285156
	c-3.3623047,1.9472656-6.1875,4.3457031-9.9404297,5.6289063c-4.2871094,1.4658203-8.5439453,2.1464844-13.0507813,2.5566406
	c-7.4082031,0.6738281-15.0556641,0.0683594-22.3447266-1.4130859
	c-16.6005859-3.3720703-26.2626953-18.3876953-29.7885742-33.8730469
	c-0.9609375-4.2197266-1.3901367-8.5703125-1.6206055-12.8867188c-0.8657227-16.2050781,1.7319336-32.5810547,2.859375-48.7207031
	C250.9838867,161.1049805,251.4477539,156.8144531,251.8422852,152.5205078z"/>
<path fill="#A3B706" d="M229.1474609,213.6411133c-4.1103516-1.3671875-8.3183594-2.3154297-12.5068359-3.4033203
	c-1.9746094-0.5126953-4.2988281-1.4521484-6.3652344-1.0742188c-2.3945313,0.4384766-3.5722656,2.5146484-4.8173828,4.3642578
	c-2.9648438,4.40625-6.8847656,8.4277344-12.1621094,9.8359375c-6.2285156,1.6621094-13.2646484,0.0654297-17.5512695-4.9189453
	c-1.8466797-2.1474609-3.4892578-5.0673828-4.4091797-7.7451172c-3.565918-10.3818359-2.6254883-22.9228516,5.5239258-30.9521484
	c2.0844727-2.0537109,5.0043945-3.5947266,7.8696289-4.2285156c8.0327148-1.7773438,16.003418,2.2949219,19.699707,9.5976563
	c0.8896484,1.7587891,1.4179688,4.0771484,3.4863281,4.8134766c2.4804688,0.8828125,5.7050781-0.2841797,8.1152344-0.9238281
	c4.6894531-1.2460938,9.453125-2.609375,14.2451172-3.4804688c2.3769531-0.4326172,4.9023438-0.6962891,6.9550781-2.0898438
	c3.6259766-2.4638672,1.3945313-6.7988281,0.0917969-9.8896484c-1.7324219-4.1103516-3.8955078-8.0644531-6.4824219-11.7001953
	c-2.1494141-3.0195313-4.6191406-5.9057617-7.3808594-8.378418c-3.5722656-3.1982422-8.0029297-6.0107422-12.2246094-8.2607422
	c-3.0927734-1.6464844-6.4794922-2.9960938-9.8408203-3.9746094c-12.6308594-3.6796875-26.3359375-2.2783203-38.5400391,2.3085938
	c-4.7036133,1.7685547-9.1586914,4.2597656-13.1401367,7.3203125c-5.9584961,4.5849609-10.9814453,10.3657227-14.7387695,16.8745117
	c-1.7856445,3.09375-3.2597656,6.3447266-4.4306641,9.7177734c-4.8833008,14.0683594-4.9233398,29.4121094-0.6552734,43.6269531
	c1.7700195,5.8945313,4.5537109,11.5048828,8.1938477,16.46875c5.956543,8.1230469,13.8676758,14.4316406,22.9462891,18.7451172
	c3.2055664,1.5234375,6.6166992,2.7490234,10.0546875,3.6230469c10.7036133,2.7207031,21.1875,2.0908203,31.7592773-0.7763672
	c3.6582031-0.9921875,7.2958984-2.4667969,10.515625-4.4716797c3.0097656-1.875,5.8779297-4.1298828,8.4267578-6.5917969
	c5.4716797-5.2851563,10.9667969-12.6308594,13.9589844-19.8017578c1.2080078-2.8974609,2.9873047-6.6962891,1.2792969-9.6982422
	C235.4355469,215.7895508,232.015625,214.5952148,229.1474609,213.6411133z"/>
<path fill="#A3B706" d="M116.6201172,224.3081055c-0.0019531,0.0214844-0.0043945,0.0429688-0.0063477,0.0644531
	c-0.793457,8.1572266-4.3613281,15.9130859-10.7021484,21.2138672c-3.5375977,2.9570313-8.0200195,5.7519531-12.3256836,7.4335938
	c-2.7036133,1.0556641-5.5673828,1.9785156-8.4101563,2.5771484c-16.6972656,3.5136719-34.8862305,0.5810547-50.1489258-6.8496094
	c-3.4853516-1.6972656-6.9018555-3.5371094-10.1699219-5.6259766c-4.3344727-2.7734375-6.7485352-5.2089844-3.0161133-9.96875
	c2.6542969-3.3837891,4.2919922-7.4023438,5.9008789-11.3515625c0.6396484-1.5703125,0.7583008-3.4541016,1.8139648-4.8330078
	c1.5957031-2.0839844,3.0756836-0.7470703,4.9399414,0.3085938c5.1367188,2.9072266,10.2924805,5.8476563,15.840332,7.9101563
	c4.7573242,1.7685547,11.4360352,3.7294922,16.3837891,1.5859375c2.5375977-1.0996094,3.5068359-4.2304688,2.3774414-6.6298828
	c-1.3432617-2.8544922-4.8525391-4.0058594-7.4477539-5.3730469c-5.237793-2.7568359-11.1743164-3.8291016-16.4555664-6.5527344
	c-5.8344727-3.0097656-11.2827148-7.0273438-15.3569336-12.2158203c-7.8520508-10-9.0727539-23.8183594-2.8496094-34.9189453
	c1.7021484-3.0361328,3.8598633-6.6323242,6.3671875-9.0708008c2.0532227-1.9960938,4.3164063-3.8242188,6.6533203-5.4785156
	c12.5766602-8.9042969,29.0302734-9.9501953,43.5385742-5.859375c4.5791016,1.2910156,9.190918,2.9873047,13.4985352,5.0126953
	c3.9716797,1.8691406,7.8710938,4.0341797,11.5610352,6.4130859c2.3466797,1.5136719,5.4677734,3.2734375,5.6694336,6.3999023
	c0.2128906,3.3056641-1.6420898,6.3828125-3.3310547,9.0751953c-2.3134766,3.6855469-4.777832,9.7646484-8.8740234,11.7324219
	c-2.4580078,1.1796875-5.2851563-1.5976563-6.9082031-3.0908203c-4.362793-4.0136719-9.7216797-6.4277344-15.6435547-6.7412109
	c-3.921875-0.2089844-8.6582031-0.3896484-10.6352539,3.8759766c-1.8242188,3.9384766,2.3725586,6.7402344,5.5390625,7.8925781
	c3.6245117,1.3203125,7.3764648,2.1201172,10.9663086,3.5830078c6.4477539,2.6279297,13.3642578,5.5439453,19.0043945,9.6796875
	c2.5927734,1.9013672,4.9350586,4.2490234,6.793457,6.8808594
	C115.5366211,207.5483398,117.3203125,216.9458008,116.6201172,224.3081055z"/>
<g id="Outer_Scumm_2_">
	<g>
		<path d="M723.6113281,156.5898438c-2.2167969-3.9873047-5.1591797-7.9072266-8.7451172-11.6484375
			c-11.4648438-11.9604492-28.7167969-19.1928711-46.1494141-19.347168
			c-8.6894531-0.0776367-17.1357422,1.6416016-24.4248047,4.9716797c0,0,0,0-0.0009766,0
			c-2.1845703,0.9985352-4.0810547,2.1450195-5.7958984,3.3515625c-5.0361328-3.6757813-11.1396484-6.2363281-17.3632813-7.1665039
			c-7.2402344-1.0800781-14.890625-0.0717773-21.6660156,2.7788086c-2.6259766-1.5493164-5.6240234-2.4492188-8.8193359-2.4677734
			c-0.0019531,0-1.5849609,0.0009766-1.5849609,0.0009766c-0.0253906,0.0004883-2.5537109,0.0092773-2.5537109,0.0092773
			l-3.6904297,0.003418c-0.0146484,0-3.2949219-0.0131836-3.2949219-0.0131836l-4.0917969,0.0131836
			c-0.0029297,0-6.9755859,0.0625-6.9755859,0.0625c-0.0117188,0.0004883-6.8183594,0.0205078-6.8183594,0.0205078
			c-2.453125-0.0141602-5.1083984,0.0004883-7.9135742,0.2016602c-6.5024414,0.4667969-11.9453125,3.8481445-14.9345703,9.277832
			c-0.7543945,1.371582-1.2583008,2.7163086-1.6000977,3.9594727
			c-11.2177734-9.3793945-26.3144531-14.9213867-41.5493164-15.0561523
			c-8.6899414-0.0771484-17.1367188,1.6416016-24.4257813,4.9716797h-0.0004883
			c-2.1850586,0.9985352-4.081543,2.1445313-5.7958984,3.3515625c-5.0385742-3.6767578-11.140625-6.2368164-17.3647461-7.1665039
			c-7.2397461-1.0805664-14.8916016-0.0712891-21.6645508,2.7792969c-2.6259766-1.5498047-5.6240234-2.449707-8.8203125-2.4682617
			c-0.0009766,0-1.5844727,0.0009766-1.5844727,0.0009766c-0.0253906,0.0004883-2.5532227,0.0092773-2.5532227,0.0092773
			l-3.6899414,0.003418c-0.0141602,0-3.2958984-0.0131836-3.2958984-0.0131836l-4.0913086,0.0131836
			c-0.0019531,0-6.9750977,0.0625-6.9750977,0.0625c-0.0112305,0.0004883-6.8178711,0.0205078-6.8178711,0.0205078
			c-2.4536133-0.0141602-5.109375,0.0004883-7.9145508,0.2016602c-2.5380859,0.1821289-4.9111328,0.8139648-7.043457,1.8325195
			c-4.4541016-3.6103516-9.5883789-4.1464844-11.262207-4.2197266c-4.5244141-0.1967773-8.8710938-0.1152344-13.0751953-0.0361328
			c0,0-5.9111328,0.0795898-5.9150391,0.0795898h-0.0004883c0.0161133,0,0.0239258-0.0004883,0.0239258-0.0004883
			l-0.0424805,0.0004883c-0.1845703-0.0004883-3.6264648-0.0097656-3.6264648-0.0097656
			c-5.534668-0.0288086-11.2578125-0.0585938-17.3447266,0.6713867c-2.0429688,0.2451172-9.777832,1.703125-13.984375,9.3408203
			c-3.3046875-3.5712891-8.8447266-6.6079102-18.1582031-5.8696289l-0.1953125,0.0151367
			c-0.0043945,0.0004883-13.5883789,0.8354492-13.5883789,0.8354492c-6.40625,0.3466797-13.0307617,0.7050781-19.6289063,1.340332
			c-9.2836914,0.8930664-16.3520508,5.9790039-19.3764648,13.4819336c-1.0791016-1.1269531-2.1728516-2.2167969-3.2954102-3.2216797
			c-4.152832-3.71875-9.324707-7.237793-15.3720703-10.4604492c-4.0273438-2.144043-8.3632813-3.8984375-12.894043-5.2172852
			c-15.0654297-4.3891602-32.3413086-3.4326172-48.6411133,2.6938477c-0.0009766,0-0.0014648,0.0004883-0.0014648,0.0004883
			c-6.1791992,2.3232422-11.9863281,5.5571289-17.2607422,9.6113281
			c-4.3217773,3.3251953-8.2919922,7.2099609-11.8115234,11.4755859
			c-2.9257813-5.9101563-8.0849609-9.2197266-10.4321289-10.7158203l-0.4399414-0.28125
			c-4.3022461-2.7739258-8.8168945-5.277832-13.4208984-7.4448242c-5.0522461-2.3754883-10.4238281-4.371582-15.9697266-5.9350586
			c-20.699707-5.8369141-41.5214844-2.8476563-57.1254883,8.2001953c-3.1586914,2.2363281-6.0390625,4.6132813-8.5610352,7.0644531
			c-3.953125,3.8447266-6.8540039,8.5869141-9.1708984,12.7197266c-4.0488281,7.222168-6.043457,15.1713867-6.043457,23.0991211
			c0,10.453125,3.4677734,20.8681641,10.265625,29.5244141c0.6689453,0.8525391-0.2416992,1.7675781-0.7543945,2.4580078
			c-0.6953125,0.9345703-1.3515625,1.8984375-1.9829102,2.8779297c-2.6035156,4.0380859-4.9482422,8.3134766-6.8999023,12.7041016
			c-1.1259766,2.5332031-2.3300781,5.1103516-2.9833984,7.8144531C4.1889648,233.5708008,4,235.4731445,4,237.3579102
			c0,1.2109375,0.1108398,2.3183594,0.2773438,3.3007813c1.5795898,9.2988281,9.1171875,14.1230469,11.9545898,15.9394531
			c3.5102539,2.2431641,7.3642578,4.3789063,11.7900391,6.5341797c18.9960938,9.2490234,41.0283203,12.2089844,60.4487305,8.1220703
			c3.4663086-0.7304688,7.1450195-1.8505859,10.9345703-3.3300781c5.7265625-2.2363281,11.6811523-5.8095703,16.7675781-10.0615234
			c3.6225586-3.0283203,6.7075195-6.6025391,9.2080078-10.5869141c7.3178711,9.8837891,17.2607422,17.9960938,28.7817383,23.4707031
			c4.1376953,1.9658203,8.5048828,3.5400391,12.9785156,4.6777344c12.7792969,3.2480469,25.8271484,2.9726563,39.8901367-0.8408203
			c5.4267578-1.4726563,10.4013672-3.6025391,14.784668-6.3320313c3.9511719-2.4619141,7.6796875-5.3759766,11.0849609-8.6660156
			c3.0078125-2.9052734,5.8286133-6.1044922,8.3686523-9.4462891c7.8632813,13.9697266,20.0556641,23.4423828,34.7783203,26.4326172
			c9.2954102,1.8896484,18.3730469,2.4501953,26.9790039,1.6679688c6.574707-0.5986328,11.7490234-1.6318359,16.777832-3.3515625
			c0.2080078-0.0712891,0.3818359-0.1591797,0.5844727-0.2324219c5.4594727,3.1337891,11.1533203,2.6630859,13.3208008,2.4765625
			l0.3764648-0.03125c0.0175781,0,4.9179688-0.1513672,4.9179688-0.1513672l2.2680664-0.0498047
			c0.0083008-0.0009766,16.2783203-0.3427734,16.2783203-0.3427734c-0.0239258,0,0.9541016,0.0341797,0.9541016,0.0341797
			c3.9692383,0.1640625,12.1196289,0.484375,18.6142578-5.1767578c2.5981445,0.9316406,5.7539063,1.4375,9.6098633,1.2451172
			c0,0,0.3481445-0.0166016,0.394043-0.0185547c0.1303711,0,0.7543945,0.0019531,0.7543945,0.0019531
			c0.0366211,0,8.5859375-0.0664063,8.5859375-0.0664063c0.0024414,0,12.6293945-0.1123047,12.6293945-0.1123047
			l9.3398438-0.1435547c4.7314453,0.0039063,9.0634766-1.5947266,12.5180664-4.3974609
			c0.5073242,0.5703125,1.0263672,1.1386719,1.6396484,1.6787109c6.7729492,5.9609375,15.2001953,5.6542969,19.25,5.5058594
			l0.5454102-0.0185547c5.4755859-0.171875,11.1552734-0.1152344,16.6484375-0.0615234l2.6982422,0.0185547l5.4765625,0.0712891
			c6.144043,0.1884766,11.6210938-2.4902344,15.3769531-6.8642578c1.1938477,0.3535156,2.4306641,0.6152344,3.7158203,0.7363281
			l4.1113281,0.3828125c0.0029297,0,4.4702148,0.4296875,4.4702148,0.4296875l13.7524414,1.2607422
			c0,0.0009766,3.2373047,0.4033203,3.2373047,0.4033203c2.2094727,0.3125,4.7133789,0.6660156,7.559082,0.7480469
			c-0.0058594,0-0.1357422-0.0048828-0.1357422-0.0048828l0.4321289,0.0322266
			c2.5483398,0.2011719,7.8525391,0.6201172,13.1098633-2.3271484c0.7543945-0.4228516,1.4658203-0.8857422,2.1352539-1.3867188
			c3.1845703,2.6308594,7.8847656,4.53125,14.8334961,4.1845703c0,0,0.3481445-0.0166016,0.394043-0.0185547
			c0.1303711,0,0.7543945,0.0019531,0.7543945,0.0019531c0.0366211,0,8.5854492-0.0664063,8.5854492-0.0664063
			c0.0019531,0,12.6298828-0.1123047,12.6298828-0.1123047l9.3408203-0.1435547
			c4.7304688,0.0039063,9.0625-1.5947266,12.5175781-4.3974609c0.5068359,0.5703125,1.0263672,1.1386719,1.6396484,1.6787109
			c6.7695313,5.9609375,15.1992188,5.6542969,19.25,5.5058594l0.5449219-0.0185547
			c5.4755859-0.171875,11.1552734-0.1152344,16.6484375-0.0615234l2.6992188,0.0185547l5.4765625,0.0712891
			c6.1435547,0.1884766,11.6201172-2.4902344,15.375-6.8642578c1.1943359,0.3535156,2.4306641,0.6152344,3.7158203,0.7363281
			l4.1142578,0.3828125c0.0019531,0,4.4716797,0.4306641,4.4716797,0.4306641l13.75,1.2607422l3.2363281,0.4023438
			c2.2089844,0.3125,4.7128906,0.6660156,7.5585938,0.7480469c-0.0058594,0-0.1357422-0.0048828-0.1357422-0.0048828
			l0.4326172,0.0322266c2.5478516,0.2011719,7.8486328,0.6201172,13.1064453-2.3242188
			c5.9570313-3.3369141,9.2675781-9.1210938,9.84375-17.1933594c0,0,0.0117188-0.1582031,0.0205078-0.2783203
			c0.1982422-1.2412109,0.9433594-5.8955078,0.9433594-5.8955078c0.8173828-5.2705078,1.359375-9.3457031,1.7539063-13.2070313
			l0.4609375-4.4257813l1.0634766-10.5839844c0.4667969-5.0820313,0.9492188-10.3369141,1.2529297-15.6572266
			C732.0830078,188.2016602,731.8242188,171.3569336,723.6113281,156.5898438z M116.6201172,224.3081055
			c-0.0019531,0.0214844-0.0043945,0.0429688-0.0063477,0.0644531c-0.1621094,1.6679688-0.4467773,3.3164063-0.8408203,4.9335938
			c-1.5336914,6.2900391-4.8168945,12.0634766-9.8613281,16.2802734c-3.5375977,2.9570313-8.0200195,5.7519531-12.3256836,7.4335938
			c-2.7036133,1.0556641-5.5673828,1.9785156-8.4101563,2.5771484c-16.6972656,3.5136719-34.8862305,0.5810547-50.1489258-6.8496094
			c-3.4853516-1.6972656-6.9018555-3.5371094-10.1699219-5.6259766c-4.3344727-2.7734375-6.7485352-5.2089844-3.0161133-9.96875
			c2.6542969-3.3837891,4.2919922-7.4023438,5.9008789-11.3515625c0.6396484-1.5703125,0.7583008-3.4541016,1.8139648-4.8330078
			c1.5957031-2.0839844,3.0756836-0.7470703,4.9399414,0.3085938c5.1367188,2.9072266,10.2924805,5.8476563,15.840332,7.9101563
			c4.7573242,1.7685547,11.4360352,3.7294922,16.3837891,1.5859375c2.5375977-1.0996094,3.5068359-4.2304688,2.3774414-6.6298828
			c-1.3432617-2.8544922-4.8525391-4.0058594-7.4477539-5.3730469c-5.237793-2.7568359-11.1743164-3.8291016-16.4555664-6.5527344
			c-5.8344727-3.0097656-11.2827148-7.0273438-15.3569336-12.2158203c-7.8520508-10-9.0727539-23.8183594-2.8496094-34.9189453
			c1.7021484-3.0361328,3.8598633-6.6323242,6.3671875-9.0708008c2.0532227-1.9960938,4.3164063-3.8242188,6.6533203-5.4785156
			c12.5766602-8.9042969,29.0302734-9.9501953,43.5385742-5.859375c4.5791016,1.2910156,9.190918,2.9873047,13.4985352,5.0126953
			c3.9716797,1.8691406,7.8710938,4.0341797,11.5610352,6.4130859c2.3466797,1.5136719,5.4677734,3.2734375,5.6694336,6.3999023
			c0.2128906,3.3056641-1.6420898,6.3828125-3.3310547,9.0751953c-2.3134766,3.6855469-4.777832,9.7646484-8.8740234,11.7324219
			c-2.4580078,1.1796875-5.2851563-1.5976563-6.9082031-3.0908203c-4.362793-4.0136719-9.7216797-6.4277344-15.6435547-6.7412109
			c-3.921875-0.2089844-8.6582031-0.3896484-10.6352539,3.8759766c-1.8242188,3.9384766,2.3725586,6.7402344,5.5390625,7.8925781
			c3.6245117,1.3203125,7.3764648,2.1201172,10.9663086,3.5830078c6.4477539,2.6279297,13.3642578,5.5439453,19.0043945,9.6796875
			c2.4345703,1.7851563,4.6323242,3.9746094,6.4316406,6.4121094c0.1171875,0.1582031,0.2485352,0.3076172,0.3618164,0.46875
			C115.5366211,207.5483398,117.3203125,216.9458008,116.6201172,224.3081055z M237.2304688,183.4360352
			c-1.3173828,0.8945313-2.8295898,1.3222656-4.3720703,1.6289063c-0.8608398,0.1708984-1.7314453,0.3056641-2.5830078,0.4609375
			c-4.7919922,0.8710938-9.5556641,2.234375-14.2451172,3.4804688c-2.4101563,0.6396484-5.6347656,1.8066406-8.1152344,0.9238281
			c-2.0683594-0.7363281-2.5966797-3.0546875-3.4863281-4.8134766c-3.6962891-7.3027344-11.6669922-11.375-19.699707-9.5976563
			c-2.8652344,0.6337891-5.7851563,2.1748047-7.8696289,4.2285156c-8.1494141,8.0292969-9.0898438,20.5703125-5.5239258,30.9521484
			c0.9199219,2.6777344,2.5625,5.5976563,4.4091797,7.7451172c4.2866211,4.984375,11.3227539,6.5810547,17.5512695,4.9189453
			c5.2773438-1.4082031,9.1972656-5.4296875,12.1621094-9.8359375c1.2451172-1.8496094,2.4228516-3.9257813,4.8173828-4.3642578
			c2.0664063-0.3779297,4.390625,0.5615234,6.3652344,1.0742188c4.1884766,1.0878906,8.3964844,2.0361328,12.5068359,3.4033203
			c0.8676758,0.2890625,1.7832031,0.6064453,2.6860352,0.9765625c2.0810547,0.8535156,4.0825195,2.015625,5.1899414,3.9599609
			c1.7080078,3.0019531-0.0712891,6.8007813-1.2792969,9.6982422c-0.4780273,1.1464844-1.0263672,2.2958984-1.6220703,3.4414063
			c-3.1318359,6.0244141-7.7397461,11.9199219-12.3369141,16.3603516c-2.5488281,2.4619141-5.4169922,4.7167969-8.4267578,6.5917969
			c-3.2197266,2.0048828-6.8574219,3.4794922-10.515625,4.4716797c-10.5717773,2.8671875-21.0556641,3.4970703-31.7592773,0.7763672
			c-3.4379883-0.8740234-6.8491211-2.0996094-10.0546875-3.6230469
			c-9.0786133-4.3134766-16.9897461-10.6220703-22.9462891-18.7451172
			c-2.2602539-3.0820313-4.1889648-6.4140625-5.7509766-9.9082031c-0.9536133-2.1328125-1.7719727-4.3261719-2.4428711-6.5605469
			c-2.4023438-8.0019531-3.4394531-16.3613281-3.0166016-24.6503906c0.3286133-6.4355469,1.5375977-12.828125,3.671875-18.9765625
			c1.1708984-3.3730469,2.6450195-6.6240234,4.4306641-9.7177734c3.7573242-6.5087891,8.7802734-12.2895508,14.7387695-16.8745117
			c3.9814453-3.0605469,8.4365234-5.5517578,13.1401367-7.3203125c12.2041016-4.5869141,25.9091797-5.9882813,38.5400391-2.3085938
			c3.3613281,0.9785156,6.7480469,2.328125,9.8408203,3.9746094c4.2216797,2.25,8.6523438,5.0625,12.2246094,8.2607422
			c2.7617188,2.4726563,5.2314453,5.3588867,7.3808594,8.378418c1.3066406,1.8369141,2.5039063,3.7558594,3.59375,5.734375
			c1.0673828,1.9375,2.03125,3.9316406,2.8886719,5.9658203C238.625,176.637207,240.8564453,180.972168,237.2304688,183.4360352z
			 M195.2949219,200.4155273c-1.2875977,1.4648438-2.2265625,2.8476563-2.8500977,3.7880859l-0.2597656,0.3896484
			c-1.894043,2.8144531-3.0317383,3.3164063-3.0424805,3.3203125c-0.6235352,0.1650391-1.1450195,0.0585938-1.3476563-0.0205078
			c-0.4345703-0.5390625-1.0356445-1.5419922-1.3276367-2.3916016c-0.6894531-2.0087891-1.1108398-4.2919922-1.1108398-6.5097656
			c0-2.9814453,0.7719727-5.8369141,2.6645508-7.7587891c0.0683594-0.0390625,0.1508789-0.0859375,0.2055664-0.1015625
			c0.8540039-0.1884766,1.5664063,0.5205078,1.9135742,1.1943359c0.0488281,0.1113281,0.1425781,0.3251953,0.1425781,0.3251953
			C190.9746094,194.2504883,192.3837891,197.4887695,195.2949219,200.4155273z M367.7954102,256.6313477
			c-0.046875,1.5263672-0.699707,2.4785156-1.6708984,3.0791016c-2.2983398,1.4189453-6.4165039,0.8183594-8.7724609,0.8476563
			c-5.4970703,0.0683594-10.9931641,0.203125-16.4892578,0.3466797c-2.5546875,0.0654297-5.1171875,0.0820313-7.6689453,0.2216797
			c-1.6777344,0.0908203-4.0869141,0.578125-5.40625-0.7783203c-1.7792969-1.8291016,0.5214844-8.3955078-3.21875-6.2285156
			c-3.3623047,1.9472656-6.1875,4.3457031-9.9404297,5.6289063c-4.2871094,1.4658203-8.5439453,2.1464844-13.0507813,2.5566406
			c-7.4082031,0.6738281-15.0556641,0.0683594-22.3447266-1.4130859
			c-14.4560547-2.9365234-23.6484375-14.703125-28.1108398-27.9199219c-0.6621094-1.9609375-1.222168-3.9521484-1.6777344-5.953125
			c-0.9609375-4.2197266-1.3901367-8.5703125-1.6206055-12.8867188c-0.1401367-2.6181641-0.1816406-5.2412109-0.1616211-7.8662109
			c0.0283203-3.6689453,0.1875-7.3417969,0.4306641-11.0166016c0.659668-9.9726563,1.8994141-19.9492188,2.590332-29.8378906
			c0.0224609-0.3222656,0.0512695-0.6435547,0.0756836-0.9648438c0.2993164-3.9824219,0.7182617-7.9536133,1.0834961-11.9262695
			c0.331543-3.6054688,3.2353516-4.9931641,6.4941406-5.3066406c10.8579102-1.0449219,21.9628906-1.3105469,32.9023438-2.1484375
			c1.8037109-0.1376953,5.5820313-0.5546875,6.0761719,2.0380859c0.3876953,2.0351563-0.1933594,4.2236328-0.3818359,6.2519531
			c-0.21875,2.3544922-0.3486328,4.715332-0.5791016,7.0688477c-0.3896484,3.984375-0.7753906,7.9697266-1.1611328,11.9541016
			c-0.7421875,7.6601563-1.3408203,15.3330078-2.0283203,22.9970703c-0.3447266,3.8417969-0.7158203,7.6816406-1.1503906,11.5146484
			c-0.6728516,5.9599609-0.3017578,13.2949219,4.5898438,17.5214844c5.3505859,4.6230469,13.2050781,5.1650391,19.1796875,1.3632813
			c6.2646484-3.9863281,7.1767578-11.1552734,7.1884766-17.890625c0.0185547-10.5771484-0.3652344-21.1484375-0.6728516-31.7197266
			c-0.1464844-5.0341797-0.09375-10.0732422-0.3115234-15.1054688c-0.1757813-4.059082-0.390625-8.1225586-0.3544922-12.1870117
			c0.0195313-2.2734375-0.6748047-6.9638672,2.6298828-7.3603516c6.3457031-0.7607422,12.7480469-0.5332031,19.1240234-0.5478516
			c6.0849609-0.015625,12.171875-0.3232422,18.2548828-0.0585938c0.9677734,0.0419922,1.6542969,0.4189453,2.1469727,0.9990234
			c1.5600586,1.8349609,1.1298828,5.7519531,1.1293945,7.9335938c-0.0068359,15.3286133,0.6572266,30.628418,1.1669922,45.9458008
			c0.4384766,13.1894531,0.8808594,26.3798828,1.3251953,39.5693359c0.1445313,4.2919922,0.2900391,8.5849609,0.4345703,12.8779297
			C367.9389648,251.0297852,367.8813477,253.831543,367.7954102,256.6313477z M542.2006836,201.7641602
			c-0.2910156,5.0966797-0.7607422,10.1806641-1.2265625,15.2636719c-0.4492188,4.9013672-0.9931641,9.7919922-1.4941406,14.6875
			c-0.3632813,3.5507813-0.8491211,7.0878906-1.3808594,10.6171875c-0.0888672,0.5898438-0.1762695,1.1796875-0.2675781,1.7695313
			c-0.3144531,2.03125-0.6425781,4.0605469-0.9746094,6.0898438c-0.2939453,1.8037109,0.0439453,4.7099609-1.8388672,5.7646484
			c-1.3193359,0.7392578-3.6845703,0.3066406-5.1259766,0.2646484c-3.3632813-0.0966797-6.6142578-0.8310547-9.9521484-1.1044922
			c-6.0068359-0.4912109-12.0097656-1.1015625-18.0097656-1.671875c-1.3740234-0.1308594-2.7480469-0.2529297-4.1220703-0.3837891
			c-3.9042969-0.3691406-2.2246094-5.8710938-1.7890625-8.1230469c0.6796875-3.5117188,1.3623047-7.0224609,2.0273438-10.5371094
			c2.2910156-12.1113281,4.3603516-24.7587891,4.3486328-37.1152344
			c-0.0039063-4.8613281,0.3945313-12.5869141-3.9980469-15.8476563c-3.0458984-2.2617188-7.796875-2.3730469-10.8720703-0.0019531
			c-3.9003906,3.0078125-3.9580078,8.4228516-4.3603516,12.8945313
			c-1.3017578,14.4628906-0.5644531,29.1005859-0.8300781,43.6054688
			c-0.1044922,5.7041016-0.1650391,11.4521484-0.7119141,17.1347656c-0.1992188,2.0644531-1.5371094,4.1279297-3.9248047,4.0546875
			c-2.8125-0.0859375-5.6494141-0.0683594-8.5058594-0.0966797c-5.7304688-0.0566406-11.5400391-0.1123047-17.3076172,0.0683594
			c-2.6474609,0.0830078-6.5703125,0.3886719-8.7216797-1.5048828c-1.6816406-1.4804688-1.203125-4.5048828-1.2519531-6.5537109
			c-0.1318359-5.4775391,0.0537109-10.9326172,0.1328125-16.4082031c0.0869141-6.0996094,0.0634766-12.1992188,0.0527344-18.2988281
			c-0.0126953-6.9785156-0.1962891-13.9423828-0.5400391-20.9121094c-0.2177734-4.3984375-0.4892578-9.4736328-3.2841797-13.1210938
			c-2.6435547-3.4501953-9.0722656-3.3056641-12.0839844-0.3154297c-4.4013672,4.3691406-3.7578125,14.3339844-3.9560547,20.0126953
			c-0.3144531,9.0087891,0.0058594,18.0400391,0.015625,27.0527344c0.0068359,6.5527344-0.0048828,13.1142578,0.0859375,19.6640625
			c0.0478516,3.4667969,0.4140625,7.6123047-3.8857422,7.6083984c-3.1201172-0.0029297-6.2333984,0.1445313-9.3515625,0.1435547
			c-4.3310547-0.0009766-8.6611328,0.0185547-12.9912109,0.1162109c-2.6162109,0.0585938-5.4443359,0.0654297-8.1738281,0.0625
			c-0.2919922-0.0009766-0.5820313-0.0009766-0.8710938-0.0019531c-0.9868164-0.0009766-2.1953125,0.1474609-3.2597656,0.0380859
			c-1.3115234-0.1347656-2.4047852-0.6630859-2.5908203-2.3603516c-0.3740234-3.4130859-0.0917969-6.9335938-0.1640625-10.3613281
			c-0.3964844-18.7753906-0.4697266-37.5546875-0.7285156-56.3330078c-0.0302734-2.4853516-0.0830078-4.9707031-0.1396484-7.4550781
			c-0.0566406-2.4970703-0.1220703-4.9931641-0.1875-7.4902344c-0.0673828-2.5087891-0.1347656-5.0166016-0.1972656-7.5253906
			c-0.0625-2.4970703-0.1201172-4.9941406-0.1650391-7.4912109c-0.046875-2.6333008-0.0761719-5.2670898-0.1582031-7.8999023
			c-0.0341797-1.0888672-0.0869141-2.1738281-0.0722656-3.2636719c0.0097656-0.7333984-0.0361328-1.53125,0.3300781-2.1972656
			c0.2260742-0.4111328,0.5839844-0.65625,0.9887695-0.8105469c0.3378906-0.1289063,0.7075195-0.1982422,1.0727539-0.2246094
			c2.2216797-0.1591797,4.4511719-0.1738281,6.6777344-0.1611328c2.3505859,0.0136719,4.7021484,0.0019531,7.0527344-0.0205078
			c2.3134766-0.0205078,4.6259766-0.046875,6.9394531-0.0625c1.328125-0.0087891,2.6572266-0.0136719,3.9853516-0.0126953
			c1.0546875,0,2.1083984,0.0048828,3.1630859,0.0126953c2.1171875,0.0175781,4.2333984-0.0117188,6.3505859-0.0117188
			c0.5048828-0.0019531,1.0107422-0.0058594,1.515625-0.0019531c1.3251953,0.0078125,1.4365234,0.9345703,1.4150391,2.0341797
			c-0.0332031,1.6845703-0.046875,3.3789063-0.0068359,5.0634766c0.0097656,0.5332031,0.0205078,1.0654297,0.0185547,1.5986328
			c-0.0009766,0.46875-0.0664063,0.9746094,0.109375,1.4208984c0.2363281,0.6054688,0.8662109,0.0849609,1.2402344-0.1542969
			c0.5820313-0.3720703,1.0820313-0.84375,1.6005859-1.296875c1.3193359-1.1503906,2.6376953-2.2773438,4.0292969-3.3417969
			c1.4462891-1.1083984,2.9296875-2.1748047,4.5126953-3.0820313c0.5654297-0.3242188,1.1591797-0.6123047,1.75-0.8691406
			c4.2001953-1.8720703,8.9970703-2.5380859,13.5458984-1.859375c3.8369141,0.5732422,7.7197266,2.1914063,10.7998047,4.5761719
			c2.0673828,1.6005859,4.3388672,3.8984375,5.5917969,6.2207031c1.0390625,1.9257813,1.9101563,4.059082,4.1035156,1.7822266
			c3.7353516-3.8769531,6.6513672-7.7382813,11.6787109-10.0351563c5.4960938-2.5107422,11.6152344-3.5791016,17.6357422-3.5253906
			c12.5839844,0.1113281,25.9697266,5.2705078,34.7402344,14.4189453c2.3691406,2.4711914,4.6435547,5.3520508,6.3125,8.3530273
			c0.1098633,0.1972656,0.2036133,0.4013672,0.3100586,0.6005859
			C542.7973633,176.0512695,542.9018555,189.4760742,542.2006836,201.7641602z M715.2783203,201.8168945
			c-0.2910156,5.0966797-0.7597656,10.1806641-1.2265625,15.2636719c-0.4492188,4.9013672-0.9921875,9.7919922-1.4941406,14.6875
			c-0.4238281,4.1445313-1.0097656,8.2705078-1.6484375,12.3867188c-0.3144531,2.03125-0.6425781,4.0605469-0.9746094,6.0898438
			c-0.2929688,1.8037109,0.0449219,4.7099609-1.8378906,5.7646484c-1.3203125,0.7392578-3.6855469,0.3066406-5.1269531,0.2646484
			c-3.3632813-0.0966797-6.6132813-0.8310547-9.9511719-1.1044922c-6.0078125-0.4912109-12.0097656-1.1015625-18.0097656-1.671875
			c-1.375-0.1308594-2.7480469-0.2529297-4.1230469-0.3837891c-3.9042969-0.3691406-2.2246094-5.8710938-1.7890625-8.1230469
			c0.6796875-3.5117188,1.3632813-7.0224609,2.0273438-10.5371094c2.2910156-12.1113281,4.3613281-24.7587891,4.3496094-37.1152344
			c-0.0039063-4.8613281,0.3945313-12.5869141-3.9980469-15.8476563c-3.046875-2.2617188-7.796875-2.3730469-10.8730469-0.0019531
			c-3.9003906,3.0078125-3.9570313,8.4228516-4.359375,12.8945313c-1.3027344,14.4628906-0.5644531,29.1005859-0.8300781,43.6054688
			c-0.1054688,5.7041016-0.1660156,11.4521484-0.7128906,17.1347656c-0.1992188,2.0644531-1.5371094,4.1279297-3.9238281,4.0546875
			c-2.8125-0.0859375-5.6503906-0.0683594-8.5058594-0.0966797c-5.7304688-0.0566406-11.5410156-0.1123047-17.3085938,0.0683594
			c-2.6464844,0.0830078-6.5703125,0.3886719-8.7207031-1.5048828c-1.6816406-1.4804688-1.203125-4.5048828-1.2519531-6.5537109
			c-0.1328125-5.4775391,0.0527344-10.9326172,0.1328125-16.4082031c0.0859375-6.0996094,0.0625-12.1992188,0.0527344-18.2988281
			c-0.0136719-6.9785156-0.1972656-13.9423828-0.5410156-20.9121094c-0.2167969-4.3984375-0.4882813-9.4736328-3.2832031-13.1210938
			c-2.6445313-3.4501953-9.0722656-3.3056641-12.0839844-0.3154297c-4.4023438,4.3691406-3.7578125,14.3339844-3.9570313,20.0126953
			c-0.3144531,9.0087891,0.0058594,18.0400391,0.015625,27.0527344c0.0078125,6.5527344-0.0039063,13.1142578,0.0859375,19.6640625
			c0.0488281,3.4667969,0.4140625,7.6123047-3.8847656,7.6083984c-3.1210938-0.0029297-6.234375,0.1445313-9.3515625,0.1435547
			c-4.3320313-0.0009766-8.6621094,0.0185547-12.9921875,0.1162109c-2.6152344,0.0585938-5.4433594,0.0654297-8.1733398,0.0625
			c-0.2919922-0.0009766-0.5820313-0.0009766-0.8710938-0.0019531c-2.2021484-0.0029297-5.5136719,0.7529297-5.8505859-2.3222656
			c-0.3740234-3.4130859-0.0917969-6.9335938-0.1640625-10.3613281c-0.0039063-0.1904297-0.0058594-0.3808594-0.0097656-0.5712891
			c-0.3862305-18.5849609-0.4624023-37.1738281-0.71875-55.7617188c-0.0302734-2.4853516-0.0830078-4.9707031-0.1396484-7.4550781
			c-0.0566406-2.4970703-0.1220703-4.9931641-0.1875-7.4902344c-0.0673828-2.5087891-0.1347656-5.0166016-0.1972656-7.5253906
			c-0.034668-1.3798828-0.0610352-2.7597656-0.0913086-4.140625c-0.0244141-1.1162109-0.0537109-2.2333984-0.0737305-3.3505859
			c-0.046875-2.6333008-0.0761719-5.2670898-0.1582031-7.8999023c-0.0341797-1.0888672-0.0869141-2.1738281-0.0722656-3.2636719
			c0.0097656-0.7333984-0.0361328-1.53125,0.3300781-2.1972656c0.4150391-0.7539063,1.2587891-0.9775391,2.0615234-1.0351563
			c2.2216797-0.1591797,4.4511719-0.1738281,6.6772461-0.1611328c2.3515625,0.0136719,4.703125,0.0019531,7.0527344-0.0205078
			c2.3144531-0.0205078,4.6269531-0.046875,6.9394531-0.0625c1.328125-0.0087891,2.6582031-0.0136719,3.9863281-0.0126953
			c1.0546875,0,2.1074219,0.0048828,3.1621094,0.0126953c2.1171875,0.0175781,4.234375-0.0117188,6.3515625-0.0117188
			c0.5039063-0.0019531,1.0097656-0.0058594,1.515625-0.0019531c1.3242188,0.0078125,1.4355469,0.9345703,1.4140625,2.0341797
			c-0.0332031,1.6845703-0.046875,3.3789063-0.0058594,5.0634766c0.0097656,0.5332031,0.0195313,1.0654297,0.0175781,1.5986328
			c0,0.46875-0.0664063,0.9746094,0.109375,1.4208984c0.2363281,0.6054688,0.8671875,0.0849609,1.2402344-0.1542969
			c0.5820313-0.3720703,1.0820313-0.84375,1.6015625-1.296875c1.3183594-1.1503906,2.6367188-2.2773438,4.0292969-3.3417969
			c1.4453125-1.1083984,2.9296875-2.1748047,4.5117188-3.0820313c0.5664063-0.3242188,1.1601563-0.6123047,1.75-0.8691406
			c4.2011719-1.8720703,8.9980469-2.5380859,13.546875-1.859375c3.8359375,0.5732422,7.71875,2.1914063,10.7988281,4.5761719
			c2.0683594,1.6005859,4.3398438,3.8984375,5.5917969,6.2207031c1.0390625,1.9257813,1.9101563,4.059082,4.1035156,1.7822266
			c3.7363281-3.8769531,6.6523438-7.7382813,11.6796875-10.0351563c5.4960938-2.5107422,11.6152344-3.5791016,17.6347656-3.5253906
			c12.5839844,0.1113281,25.9707031,5.2705078,34.7402344,14.4189453c2.3691406,2.4711914,4.6445313,5.3520508,6.3125,8.3530273
			C715.8857422,175.6176758,715.9931641,189.309082,715.2783203,201.8168945z"/>
	</g>
</g>
</svg>
