/* XPM */
static const char *scummvm_icon[] = {
/* columns rows colors chars-per-pixel */
"32 32 71 1",
"  c #000000",
". c #001100",
"X c #111100",
"o c #111111",
"O c #112200",
"+ c #112211",
"@ c #222200",
"# c #223300",
"$ c #333300",
"% c #222211",
"& c #223311",
"* c #333311",
"= c #333322",
"- c #334400",
"; c #335500",
": c #335511",
"> c #334422",
", c #445500",
"< c #445511",
"1 c #446600",
"2 c #447700",
"3 c #557700",
"4 c #556611",
"5 c #444422",
"6 c #445522",
"7 c #555522",
"8 c #667722",
"9 c #667733",
"0 c #558800",
"q c #559900",
"w c #668800",
"e c #669900",
"r c #779900",
"t c #668811",
"y c #66AA00",
"u c #77AA00",
"i c #77BB00",
"p c #66AA11",
"a c #77AA11",
"s c #77BB11",
"d c #779922",
"f c #77AA22",
"g c #77CC00",
"h c #668844",
"j c #88BB00",
"k c #88BB11",
"l c #88AA22",
"z c #88AA33",
"x c #88BB33",
"c c #88CC00",
"v c #88DD00",
"b c #88CC11",
"n c #88DD11",
"m c #99DD11",
"M c #99DD22",
"N c #99DD33",
"B c #889955",
"V c #88BB44",
"C c #99BB44",
"Z c #88AA55",
"A c #99AA55",
"S c #99CC44",
"D c #99DD44",
"F c #99CC55",
"G c #AADD44",
"H c #AACC55",
"J c #AADD55",
"K c #AAEE55",
"L c #AADD66",
"P c #AACC77",
"I c None",
/* pixels */
"IIIIIIIIIIIIoo   ooIIIIIIIIIIIII",
"IIIIIIIIIo           oIIIIIIIIII",
"IIIIIIIIo   +>666*X    oIIIIIIII",
"IIIIIII   =BHJJJGGSd:    IIIIIII",
"IIIIII   9LKNNNMMNNNNf$   IIIIII",
"IIIIII  9LDMnMncvnnMMMc,   IIIII",
"IIIII  &HNnvvciiiiiggvgy-  oIIII",
"IIIII  8GMnvcge3,10eyiy0-  oIIII",
"IIIII  fNMnnvgwX  X;0e01.  IIIII",
"IIIII  lNMnvvgu#    O13@   IIIII",
"IIIII  amvvvvvgu,     @   IIIIII",
"IIIII  0vcvvvcgvma-      IIIIIII",
"IIIII  #icvvvcgvnMMt@    IIIIIII",
"IIIII   3ggccgggvnMMb,   IIIIIII",
"IIIIII  X0yiicccvnMMMb1   IIIIII",
"IIIIIII  X3yiciicbccccc;  IIIIII",
"IIIIIII   X,eyyucbccccirO  IIIII",
"IIIIIIII    #3wubbbbjiiu,  IIIII",
"IIIIIII      X-wikjiuiju0   IIII",
"IIIIII  +%     @wuiuisue0X  IIII",
"IIIII  XZA*     @uuuuuee3X  IIII",
"IIIIo  hPFz4X    dauyye01X  IIII",
"IIII  <CVlfff85*7zayye03,   IIII",
"IIII  3pyyypaxVVxaeee021#   IIII",
"IIII  X30eeeeyapeeeq022,.  IIIII",
"IIIIo  X1300qppeqe03211O   IIIII",
"IIIIIo   -12000003211;X   IIIIII",
"IIIIIIo   X-,11111,-O    oIIIIII",
"IIIIIIIo     .XOXX       IIIIIII",
"IIIIIIIII              IIIIIIIII",
"IIIIIIIIIII          IIIIIIIIIII",
"IIIIIIIIIIIIIIIIIIIIIIIIIIIIIIII"
};
