/* XPM */
static const char *scummvm_icon[] = {
/* columns rows colors chars-per-pixel */
"32 32 22 1 ",
"  c gray20",
". c #334433",
"X c #335533",
"o c #336633",
"O c #337733",
"+ c #444433",
"@ c #446633",
"# c #444444",
"$ c #445544",
"% c #446644",
"& c #447744",
"* c #338833",
"= c #339933",
"- c #448833",
"; c #449933",
": c #44AA33",
"> c #448844",
", c #449944",
"< c #44AA44",
"1 c #44BB44",
"2 c #44CC44",
"3 c None",
/* pixels */
"33333333333333333333333333333333",
"33333333333          33333333333",
"333333333     ....     333333333",
"33333333   $&,<<<<,&$    3333333",
"3333333  .&1222222221>$   333333",
"333333  .,2222222222221&.  33333",
"333333  &222222222222222>.  3333",
"33333  +12222222222222222@  3333",
"33333  %2222222<OO;12222<.  3333",
"33333  &2222222>  .X=121o  33333",
"33333  &22222221%.  .o<-.  33333",
"33333  &222222222,$   ..  333333",
"33333  X12222222221>$    3333333",
"333333 .,222222222221&.  3333333",
"333333  X1222222222222>.  333333",
"3333333  o1222222222222,. 333333",
"3333333   o<222222222222&  33333",
"33333333   X=12222222222<+ 33333",
"33333333    .o<2222222222%  3333",
"3333333 .+    .O122222222>  3333",
"333333  %1&.   .o<2222222>  3333",
"33333  $122,$.   &2222222>  3333",
"3333  #<22221,%$$,2222222&  3333",
"3333  &222222221122222221X  3333",
"3333  X<2222222222222222,.  3333",
"3333   X<22222222222222<X  33333",
"33333   X;122222222222;X   33333",
"333333   .o;12222221:O.   333333",
"3333333    .XOO***OX.    3333333",
"333333333      ..       33333333",
"33333333333          33333333333",
"33333333333333333333333333333333"
};
