<svg xmlns="http://www.w3.org/2000/svg" xmlns:xlink="http://www.w3.org/1999/xlink" viewBox="0 0 512 512"><defs><style>.cls-1{fill:none;}.cls-2{isolation:isolate;}.cls-3{opacity:0.2;mix-blend-mode:multiply;}.cls-4{clip-path:url(#clip-path);}.cls-5{clip-path:url(#clip-path-2);}.cls-6{clip-path:url(#clip-path-3);}.cls-7{fill:#3a3a3a;}.cls-8{fill:#2c792a;}.cls-9{clip-path:url(#clip-path-4);}.cls-10{fill:#2c7a2a;}.cls-11{fill:#2b7629;}.cls-12{fill:#2e7f2c;}.cls-13{fill:#30832d;}.cls-14{clip-path:url(#clip-path-5);}.cls-15{clip-path:url(#clip-path-6);}.cls-16{fill:#4acb46;}</style><clipPath id="clip-path"><path class="cls-1" d="M380.2,176.06v8.68A9.76,9.76,0,0,1,372,189.3a10.12,10.12,0,0,1-6.56-2.5,175.86,175.86,0,0,0-17.94-13.25,253.7,253.7,0,0,0-27.68-15.33,156.07,156.07,0,0,0-25.33-9.55,81.14,81.14,0,0,0-20.62-3.19q-10.61,0-15.61,5.22a18.39,18.39,0,0,0-5,13.31v-8.68a18.43,18.43,0,0,1,5-13.32q5-5.2,15.61-5.21A80.7,80.7,0,0,1,294.51,140a156.07,156.07,0,0,1,25.33,9.55,253.7,253.7,0,0,1,27.68,15.33,176.57,176.57,0,0,1,17.94,13.24,10.08,10.08,0,0,0,6.56,2.51A9.76,9.76,0,0,0,380.2,176.06Z"/></clipPath><clipPath id="clip-path-2"><path class="cls-1" d="M289.81,351.57v8.68q0-11-12.08-20.84a254.93,254.93,0,0,0-30.05-20.55L208.8,295.7a226,226,0,0,1-38.87-29.22A156.13,156.13,0,0,1,139.88,228q-12.07-21.71-12.07-50.07v-8.69q0,28.38,12.07,50.08a155.89,155.89,0,0,0,30.05,38.49A226,226,0,0,0,208.8,287l38.88,23.16a254.93,254.93,0,0,1,30.05,20.55Q289.79,340.59,289.81,351.57Z"/></clipPath><clipPath id="clip-path-3"><path class="cls-1" d="M416.45,339.41v8.68q0,31.26-13.25,54.12a116.17,116.17,0,0,1-34.46,37.63,153.29,153.29,0,0,1-48,22,206.65,206.65,0,0,1-53.9,7.23q-54.21,0-91-19.67t-66.26-59.63v-8.68Q139,421,175.81,440.71t91,19.68a206.65,206.65,0,0,0,53.9-7.23,153.29,153.29,0,0,0,48-22,116.27,116.27,0,0,0,34.46-37.63Q416.46,370.67,416.45,339.41Z"/></clipPath><clipPath id="clip-path-4"><path class="cls-1" d="M373.2,169.06v8.68A9.76,9.76,0,0,1,365,182.3a10.12,10.12,0,0,1-6.56-2.5,175.86,175.86,0,0,0-17.94-13.25,253.7,253.7,0,0,0-27.68-15.33,156.07,156.07,0,0,0-25.33-9.55,81.14,81.14,0,0,0-20.62-3.19q-10.61,0-15.61,5.22a18.39,18.39,0,0,0-5,13.31v-8.68a18.43,18.43,0,0,1,5-13.32q5-5.2,15.61-5.21A80.7,80.7,0,0,1,287.51,133a156.07,156.07,0,0,1,25.33,9.55,253.7,253.7,0,0,1,27.68,15.33,176.57,176.57,0,0,1,17.94,13.24,10.08,10.08,0,0,0,6.56,2.51A9.76,9.76,0,0,0,373.2,169.06Z"/></clipPath><clipPath id="clip-path-5"><path class="cls-1" d="M282.81,344.57v8.68q0-11-12.08-20.84a254.93,254.93,0,0,0-30.05-20.55L201.8,288.7a226,226,0,0,1-38.87-29.22A156.13,156.13,0,0,1,132.88,221q-12.07-21.71-12.07-50.07v-8.69q0,28.38,12.07,50.08a155.89,155.89,0,0,0,30.05,38.49A226,226,0,0,0,201.8,280l38.88,23.16a254.93,254.93,0,0,1,30.05,20.55Q282.79,333.59,282.81,344.57Z"/></clipPath><clipPath id="clip-path-6"><path class="cls-1" d="M409.45,332.41v8.68q0,31.26-13.25,54.12a116.17,116.17,0,0,1-34.46,37.63,153.29,153.29,0,0,1-48,22,206.65,206.65,0,0,1-53.9,7.23q-54.21,0-91-19.67t-66.26-59.63v-8.68Q132,414,168.81,433.71t91,19.68a206.65,206.65,0,0,0,53.9-7.23,153.29,153.29,0,0,0,48-22,116.27,116.27,0,0,0,34.46-37.63Q409.46,363.67,409.45,332.41Z"/></clipPath></defs><title>Artboard 1</title><g class="cls-2"><g id="Layer1"><g class="cls-3"><path id="path53" d="M425.33,251.42c24.61,29.34,33.77,82.71,30.26,110.41-5.23,41.3-24,80.79-54.95,104.08C368.43,490.14,329,504.49,279.86,507.8c-74,5-131.49-18.59-169.74-54.26C90.51,435.23,59.73,409,72.84,371.66c6.75-19.2,31.54-42.92,47.57-59.33,5.76-5.9,17.1-16.82,15.86-24C133.43,276.25,114.86,258,107,245.12c-23.54-36.9-28.8-93-8.08-139.59C123.63,50,185.78,14.67,270.78,17.72,306,19,348.83,30.58,378.29,47.52c42.08,24.18,76.33,52.09,72,82.81-2.65,18.89-16.68,39.85-33.28,60.07-10.3,12.54-15.08,20.2-14.49,27.56C403,224.21,418.24,243,425.33,251.42Z"/><polygon points="414.09 124.65 414.09 133.33 380.2 184.74 380.2 176.06 414.09 124.65"/><g class="cls-4"><path d="M380.2,176.06v8.68c-.18.27-.37.54-.57.79v-8.69q.3-.37.57-.78"/><path d="M379.63,176.84v8.69A9.66,9.66,0,0,1,372,189.3a10.12,10.12,0,0,1-6.56-2.5,175.86,175.86,0,0,0-17.94-13.25,253.7,253.7,0,0,0-27.68-15.33,156.07,156.07,0,0,0-25.33-9.55,81.14,81.14,0,0,0-20.62-3.19q-10.61,0-15.61,5.22a15.34,15.34,0,0,0-1.13,1.29v-8.68c.35-.45.73-.88,1.13-1.3q5-5.2,15.61-5.21A80.7,80.7,0,0,1,294.51,140a156.07,156.07,0,0,1,25.33,9.55,253.7,253.7,0,0,1,27.68,15.33,176.57,176.57,0,0,1,17.94,13.24,10.08,10.08,0,0,0,6.56,2.51,9.67,9.67,0,0,0,7.61-3.78"/><path d="M257.15,143.31V152A17.14,17.14,0,0,0,255,155.4v-8.68a16.86,16.86,0,0,1,2.11-3.41"/><path d="M255,146.72v8.68a18,18,0,0,0-1.26,3.77v-8.68a18,18,0,0,1,1.26-3.77"/><path d="M253.78,150.49v8.68a22.12,22.12,0,0,0-.5,4.84v-8.68a22.05,22.05,0,0,1,.5-4.84"/></g><g class="cls-5"><path d="M289.81,351.57v8.68q0-11-12.08-20.84a254.93,254.93,0,0,0-30.05-20.55L208.8,295.7a226,226,0,0,1-38.87-29.22A156.13,156.13,0,0,1,139.88,228q-12.07-21.71-12.07-50.07v-8.69q0,28.38,12.07,50.08a155.89,155.89,0,0,0,30.05,38.49A226,226,0,0,0,208.8,287l38.88,23.16a254.93,254.93,0,0,1,30.05,20.55q12.06,9.86,12.08,20.84"/></g><g class="cls-6"><path d="M416.45,339.41v8.68a123.86,123.86,0,0,1-2.75,26.74v-8.68a123.86,123.86,0,0,0,2.75-26.74"/><path d="M413.7,366.15v8.68a97.26,97.26,0,0,1-6.78,20.24v-8.68a97.26,97.26,0,0,0,6.78-20.24"/><path d="M406.92,386.39v8.68c-1.14,2.45-2.38,4.82-3.72,7.14a121.22,121.22,0,0,1-9.89,14.56v-8.69a121.1,121.1,0,0,0,9.89-14.55q2-3.48,3.72-7.14"/><path d="M393.31,408.08v8.69a115.06,115.06,0,0,1-24.57,23.07,153.29,153.29,0,0,1-48,22,206.65,206.65,0,0,1-53.9,7.23q-54.21,0-91-19.67t-66.26-59.63v-8.68Q139,421,175.81,440.71t91,19.68a206.65,206.65,0,0,0,53.9-7.23,153.29,153.29,0,0,0,48-22,114.86,114.86,0,0,0,24.57-23.08"/></g><path d="M258.58,56.93q47.12,0,84.52,17.08t71,50.64L380.2,176.06a9.76,9.76,0,0,1-8.18,4.56,10.08,10.08,0,0,1-6.56-2.51,176.57,176.57,0,0,0-17.94-13.24,253.7,253.7,0,0,0-27.68-15.33A156.07,156.07,0,0,0,294.51,140a80.7,80.7,0,0,0-20.62-3.19q-10.61,0-15.61,5.21a18.43,18.43,0,0,0-5,13.32q0,10.41,12.07,19.39a230.28,230.28,0,0,0,30.33,18.52q19.77,10.39,39.18,21.42A214.44,214.44,0,0,1,374,243.31a143.24,143.24,0,0,1,30.35,40.24q12.06,23.44,12.07,55.86,0,31.24-13.25,54.12a116.27,116.27,0,0,1-34.46,37.63,153.29,153.29,0,0,1-48,22,206.65,206.65,0,0,1-53.9,7.23q-54.21,0-91-19.68t-66.26-59.62l41.85-52a9.33,9.33,0,0,1,14.6-.43,107.88,107.88,0,0,0,13.06,11.65,161.87,161.87,0,0,0,26.8,16.78,189.63,189.63,0,0,0,29.45,11.87,95,95,0,0,0,28,4.64q12.94,0,19.74-4.64t6.78-17.36q0-11-12.08-20.84a254.93,254.93,0,0,0-30.05-20.55L208.8,287a226,226,0,0,1-38.87-29.23,155.89,155.89,0,0,1-30.05-38.49q-12.07-21.7-12.07-50.08,0-27.78,10.6-48.61a104.33,104.33,0,0,1,28.56-35A126.27,126.27,0,0,1,208.5,64.17,169.82,169.82,0,0,1,258.58,56.93Z"/></g><path id="path53-2" data-name="path53" class="cls-7" d="M418.33,244.42c24.61,29.34,33.77,82.71,30.26,110.41-5.23,41.3-24,80.79-54.95,104.08C361.43,483.14,322,497.49,272.86,500.8c-74,5-131.49-18.59-169.74-54.26C83.51,428.23,52.73,402,65.84,364.66c6.75-19.2,31.54-42.92,47.57-59.33,5.76-5.9,17.1-16.82,15.86-24C126.43,269.25,107.86,251,100,238.12c-23.54-36.9-28.8-93-8.08-139.59C116.63,43,178.78,7.67,263.78,10.72,299,12,341.83,23.58,371.29,40.52c42.08,24.18,76.33,52.09,72,82.81-2.65,18.89-16.68,39.85-33.28,60.07-10.3,12.54-15.08,20.2-14.49,27.56C396,217.21,411.24,236,418.33,244.42Z"/><g class="cls-2"><polygon class="cls-8" points="407.09 117.65 407.09 126.33 373.2 177.74 373.2 169.06 407.09 117.65"/><g class="cls-2"><g class="cls-9"><g class="cls-2"><path class="cls-10" d="M373.2,169.06v8.68c-.18.27-.37.54-.57.79v-8.69q.3-.37.57-.78"/><path class="cls-11" d="M372.63,169.84v8.69A9.66,9.66,0,0,1,365,182.3a10.12,10.12,0,0,1-6.56-2.5,175.86,175.86,0,0,0-17.94-13.25,253.7,253.7,0,0,0-27.68-15.33,156.07,156.07,0,0,0-25.33-9.55,81.14,81.14,0,0,0-20.62-3.19q-10.61,0-15.61,5.22a15.34,15.34,0,0,0-1.13,1.29v-8.68c.35-.45.73-.88,1.13-1.3q5-5.2,15.61-5.21A80.7,80.7,0,0,1,287.51,133a156.07,156.07,0,0,1,25.33,9.55,253.7,253.7,0,0,1,27.68,15.33,176.57,176.57,0,0,1,17.94,13.24,10.08,10.08,0,0,0,6.56,2.51,9.67,9.67,0,0,0,7.61-3.78"/><path class="cls-10" d="M250.15,136.31V145A17.14,17.14,0,0,0,248,148.4v-8.68a16.86,16.86,0,0,1,2.11-3.41"/><path class="cls-12" d="M248,139.72v8.68a18,18,0,0,0-1.26,3.77v-8.68a18,18,0,0,1,1.26-3.77"/><path class="cls-13" d="M246.78,143.49v8.68a22.12,22.12,0,0,0-.5,4.84v-8.68a22.05,22.05,0,0,1,.5-4.84"/></g></g></g><g class="cls-2"><g class="cls-14"><g class="cls-2"><path class="cls-11" d="M282.81,344.57v8.68q0-11-12.08-20.84a254.93,254.93,0,0,0-30.05-20.55L201.8,288.7a226,226,0,0,1-38.87-29.22A156.13,156.13,0,0,1,132.88,221q-12.07-21.71-12.07-50.07v-8.69q0,28.38,12.07,50.08a155.89,155.89,0,0,0,30.05,38.49A226,226,0,0,0,201.8,280l38.88,23.16a254.93,254.93,0,0,1,30.05,20.55q12.06,9.86,12.08,20.84"/></g></g></g><g class="cls-2"><g class="cls-15"><g class="cls-2"><path class="cls-13" d="M409.45,332.41v8.68a123.86,123.86,0,0,1-2.75,26.74v-8.68a123.86,123.86,0,0,0,2.75-26.74"/><path class="cls-12" d="M406.7,359.15v8.68a97.26,97.26,0,0,1-6.78,20.24v-8.68a97.26,97.26,0,0,0,6.78-20.24"/><path class="cls-10" d="M399.92,379.39v8.68c-1.14,2.45-2.38,4.82-3.72,7.14a121.22,121.22,0,0,1-9.89,14.56v-8.69a121.1,121.1,0,0,0,9.89-14.55q2-3.48,3.72-7.14"/><path class="cls-11" d="M386.31,401.08v8.69a115.06,115.06,0,0,1-24.57,23.07,153.29,153.29,0,0,1-48,22,206.65,206.65,0,0,1-53.9,7.23q-54.21,0-91-19.67t-66.26-59.63v-8.68Q132,414,168.81,433.71t91,19.68a206.65,206.65,0,0,0,53.9-7.23,153.29,153.29,0,0,0,48-22,114.86,114.86,0,0,0,24.57-23.08"/></g></g></g><path class="cls-16" d="M251.58,49.93q47.11,0,84.52,17.08t71,50.64L373.2,169.06a9.76,9.76,0,0,1-8.18,4.56,10.08,10.08,0,0,1-6.56-2.51,176.57,176.57,0,0,0-17.94-13.24,253.7,253.7,0,0,0-27.68-15.33A156.07,156.07,0,0,0,287.51,133a80.7,80.7,0,0,0-20.62-3.19q-10.61,0-15.61,5.21a18.43,18.43,0,0,0-5,13.32q0,10.41,12.07,19.39a230.28,230.28,0,0,0,30.33,18.52q19.77,10.39,39.18,21.42A214.44,214.44,0,0,1,367,236.31a143.24,143.24,0,0,1,30.35,40.24q12.06,23.44,12.07,55.86,0,31.24-13.25,54.12a116.27,116.27,0,0,1-34.46,37.63,153.29,153.29,0,0,1-48,22,206.65,206.65,0,0,1-53.9,7.23q-54.21,0-91-19.68t-66.26-59.62l41.85-52a9.33,9.33,0,0,1,14.6-.43,107.88,107.88,0,0,0,13.06,11.65,161.87,161.87,0,0,0,26.8,16.78,189.63,189.63,0,0,0,29.45,11.87,95,95,0,0,0,28,4.64q12.94,0,19.74-4.64t6.78-17.36q0-11-12.08-20.84a254.93,254.93,0,0,0-30.05-20.55L201.8,280a226,226,0,0,1-38.87-29.23,155.89,155.89,0,0,1-30.05-38.49q-12.07-21.7-12.07-50.08,0-27.78,10.6-48.61a104.33,104.33,0,0,1,28.56-35A126.27,126.27,0,0,1,201.5,57.17,169.82,169.82,0,0,1,251.58,49.93Z"/></g></g></g></svg>