<?xml version="1.0" encoding="UTF-8" standalone="no"?>
<svg
   width="682.67"
   height="682.67"
   version="1.1"
   viewBox="0 0 682.67 682.67"
   xml:space="preserve"
   id="svg65"
   sodipodi:docname="scummvm_iphone_tinted_icon.svg"
   inkscape:version="1.4 (e7c3feb1, 2024-10-09)"
   xmlns:inkscape="http://www.inkscape.org/namespaces/inkscape"
   xmlns:sodipodi="http://sodipodi.sourceforge.net/DTD/sodipodi-0.dtd"
   xmlns="http://www.w3.org/2000/svg"
   xmlns:svg="http://www.w3.org/2000/svg"
   xmlns:rdf="http://www.w3.org/1999/02/22-rdf-syntax-ns#"
   xmlns:cc="http://creativecommons.org/ns#"
   xmlns:dc="http://purl.org/dc/elements/1.1/"><sodipodi:namedview
     id="namedview65"
     pagecolor="#ffffff"
     bordercolor="#000000"
     borderopacity="0.25"
     inkscape:showpageshadow="2"
     inkscape:pageopacity="0.0"
     inkscape:pagecheckerboard="0"
     inkscape:deskcolor="#d1d1d1"
     inkscape:zoom="0.66164242"
     inkscape:cx="321.17046"
     inkscape:cy="395.98428"
     inkscape:window-width="1288"
     inkscape:window-height="809"
     inkscape:window-x="0"
     inkscape:window-y="38"
     inkscape:window-maximized="0"
     inkscape:current-layer="svg65" /><metadata
     id="metadata1"><rdf:RDF><cc:Work
         rdf:about=""><dc:format>image/svg+xml</dc:format><dc:type
           rdf:resource="http://purl.org/dc/dcmitype/StillImage" /></cc:Work></rdf:RDF></metadata><defs
     id="defs30"><clipPath
       id="clipPath18-5"><path
         d="m0 512h512v-512h-512z"
         id="path1" /></clipPath><clipPath
       id="clipPath26-4"><path
         d="m67.688 496.46h386.62v-490.92h-386.62z"
         id="path2" /></clipPath><clipPath
       id="clipPath30-0"><path
         d="m378.2 342.28v-17.365c-1.971-2.991-5.035-4.559-8.182-4.559-2.27 0-4.584 0.817-6.56 2.503-0.426 0.363-8.514 7.25-17.937 13.242-9.423 5.974-18.657 11.079-27.684 15.333-9.036 4.237-17.478 7.428-25.335 9.546s-14.724 3.191-20.61 3.191c-7.074 0-12.285-1.738-15.615-5.212-3.339-3.474-5.004-7.906-5.004-13.313v17.365c0 5.407 1.665 9.839 5.004 13.313 3.33 3.474 8.541 5.212 15.615 5.212 5.886 0 12.753-1.073 20.61-3.191 7.857-2.119 16.299-5.309 25.335-9.546 9.027-4.254 18.261-9.36 27.684-15.333 9.423-5.992 17.511-12.88 17.937-13.242 1.976-1.686 4.29-2.503 6.56-2.503 3.147 0 6.211 1.568 8.182 4.559"
         id="path3" /></clipPath><clipPath
       id="clipPath34-2"><path
         d="m287.81 166.77v-17.364c0 7.33-4.041 14.27-12.078 20.837-8.055 6.56-18.072 13.401-30.051 20.555-11.979 7.135-24.939 14.845-38.88 23.159-13.986 8.332-27.027 18.125-38.871 29.223-11.988 11.185-21.996 24.027-30.051 38.492-8.046 14.474-12.069 31.164-12.069 50.078v17.365c0-18.914 4.023-35.604 12.069-50.078 8.055-14.465 18.063-27.308 30.051-38.493 11.844-11.097 24.885-20.891 38.871-29.222 13.941-8.314 26.901-16.025 38.88-23.16 11.979-7.152 21.996-13.995 30.051-20.554 8.037-6.567 12.078-13.507 12.078-20.838"
         id="path4" /></clipPath><clipPath
       id="clipPath38-0"><path
         d="m414.46 178.94v-17.366c0-20.838-4.419-38.882-13.257-54.119-8.838-15.254-20.322-27.786-34.461-37.634-14.13-9.837-30.15-17.168-48.006-21.998-17.874-4.813-35.847-7.232-53.901-7.232-36.135 0-66.474 6.567-91.017 19.676-24.543 13.118-46.629 32.998-66.267 59.624v17.364c19.638-26.625 41.724-46.506 66.267-59.623 24.543-13.108 54.882-19.677 91.017-19.677 18.054 0 36.027 2.42 53.901 7.233 17.856 4.831 33.876 12.161 48.006 21.999 14.139 9.846 25.623 22.38 34.461 37.633 8.838 15.236 13.257 33.282 13.257 54.12"
         id="path5" /></clipPath><clipPath
       id="clipPath110-3"><path
         d="m102.55 386.54h306.91v-340.95h-306.91z"
         id="path6" /></clipPath><clipPath
       id="clipPath7"><path
         d="m246.28 386.54h126.93v-61.18h-126.93z"
         id="path7" /></clipPath><clipPath
       id="clipPath8"><path
         d="m120.81 354.12h162v-199.71h-162z"
         id="path8" /></clipPath><clipPath
       id="clipPath9"><path
         d="m102.55 183.93h306.91v-138.35h-306.91z"
         id="path9" /></clipPath><clipPath
       id="clipPath162-1"><path
         d="m102.55 466.42h306.91v-420.83h-306.91z"
         id="path10" /></clipPath><linearGradient
       id="linearGradient16"
       x1="-160.81"
       x2="-.00052556"
       y1="-36.665"
       y2="-36.665"
       gradientUnits="userSpaceOnUse"><stop
         stop-color="#006b1b"
         offset="0"
         id="stop10"
         style="stop-color:#838383;stop-opacity:1;" /><stop
         stop-color="#007a1f"
         offset="0.16582"
         id="stop11"
         style="stop-color:#898989;stop-opacity:1;" /><stop
         stop-color="#008021"
         offset="0.30006"
         id="stop12"
         style="stop-color:#8c8c8c;stop-opacity:1;" /><stop
         stop-color="#006b1b"
         offset="0.70223999"
         id="stop13"
         style="stop-color:#838383;stop-opacity:1;" /><stop
         stop-color="#008521"
         offset="0.75383002"
         id="stop14"
         style="stop-color:#8f8f8f;stop-opacity:1;" /><stop
         stop-color="#00661a"
         offset="0.81347001"
         id="stop15"
         style="stop-color:#808080;stop-opacity:1;" /><stop
         stop-color="#006a1b"
         offset="1"
         id="stop16"
         style="stop-color:#838383;stop-opacity:1;" /></linearGradient><clipPath
       id="clipPath166-5"><path
         d="m246.28 386.54h126.93v-61.18h-126.93z"
         id="path16" /></clipPath><clipPath
       id="clipPath170-6"><path
         d="m373.2 347.28v-17.365c-1.971-2.991-5.035-4.559-8.182-4.559-2.27 0-4.584 0.817-6.56 2.503-0.426 0.363-8.514 7.25-17.937 13.242-9.423 5.974-18.657 11.079-27.684 15.333-9.036 4.237-17.478 7.428-25.335 9.546s-14.724 3.191-20.61 3.191c-7.074 0-12.285-1.738-15.615-5.212-3.339-3.474-5.004-7.906-5.004-13.313v17.365c0 5.407 1.665 9.839 5.004 13.313 3.33 3.474 8.541 5.212 15.615 5.212 5.886 0 12.753-1.073 20.61-3.191 7.857-2.119 16.299-5.309 25.335-9.546 9.027-4.254 18.261-9.36 27.684-15.333 9.423-5.992 17.511-12.88 17.937-13.242 1.976-1.686 4.29-2.503 6.56-2.503 3.147 0 6.211 1.568 8.182 4.559"
         id="path17" /></clipPath><clipPath
       id="clipPath174-2"><path
         d="m246.28 386.54h126.93v-61.18h-126.93z"
         id="path18" /></clipPath><clipPath
       id="clipPath178-0"><path
         d="m120.81 354.12h162v-199.71h-162z"
         id="path19" /></clipPath><clipPath
       id="clipPath182-3"><path
         d="m282.81 171.77v-17.364c0 7.33-4.041 14.27-12.078 20.837-8.055 6.56-18.072 13.401-30.051 20.555-11.979 7.135-24.939 14.845-38.88 23.159-13.986 8.332-27.027 18.125-38.871 29.223-11.988 11.185-21.996 24.027-30.051 38.492-8.046 14.474-12.069 31.164-12.069 50.078v17.365c0-18.914 4.023-35.604 12.069-50.078 8.055-14.465 18.063-27.308 30.051-38.493 11.844-11.097 24.885-20.891 38.871-29.222 13.941-8.314 26.901-16.025 38.88-23.16 11.979-7.152 21.996-13.995 30.051-20.554 8.037-6.567 12.078-13.507 12.078-20.838"
         id="path20" /></clipPath><clipPath
       id="clipPath186-8"><path
         d="m120.81 354.12h162v-199.71h-162z"
         id="path21" /></clipPath><linearGradient
       id="linearGradient13"
       x1="-162"
       x2="0"
       y1="82.49"
       y2="82.49"
       gradientUnits="userSpaceOnUse"><stop
         stop-color="#006a1b"
         offset="0"
         id="stop21"
         style="stop-color:#838383;stop-opacity:1;" /><stop
         stop-color="#007a1f"
         offset="0.5"
         id="stop22"
         style="stop-color:#8a8a8a;stop-opacity:1;" /><stop
         stop-color="#006a1b"
         offset="1"
         id="stop23"
         style="stop-color:#818181;stop-opacity:1;" /></linearGradient><clipPath
       id="clipPath190-7"><path
         d="m102.55 183.93h306.91v-138.35h-306.91z"
         id="path23" /></clipPath><clipPath
       id="clipPath194-3"><path
         d="m409.46 183.94v-17.366c0-20.838-4.419-38.882-13.257-54.119-8.838-15.254-20.322-27.786-34.461-37.634-14.13-9.837-30.15-17.168-48.006-21.998-17.874-4.813-35.847-7.232-53.901-7.232-36.135 0-66.474 6.567-91.017 19.676-24.543 13.118-46.629 32.998-66.267 59.624v17.364c19.638-26.625 41.724-46.506 66.267-59.623 24.543-13.108 54.882-19.677 91.017-19.677 18.054 0 36.027 2.42 53.901 7.233 17.856 4.831 33.876 12.161 48.006 21.999 14.139 9.846 25.623 22.38 34.461 37.633 8.838 15.236 13.257 33.282 13.257 54.12"
         id="path24" /></clipPath><clipPath
       id="clipPath198-6"><path
         d="m102.55 183.93h306.91v-138.35h-306.91z"
         id="path25" /></clipPath><linearGradient
       id="linearGradient10"
       x1="-306.91"
       x2=".00029318"
       y1="-69.174"
       y2="-69.174"
       gradientUnits="userSpaceOnUse"
       spreadMethod="reflect"><stop
         stop-color="#006a1b"
         offset="0"
         id="stop25"
         style="stop-color:#838383;stop-opacity:1;" /><stop
         stop-color="#007a20"
         offset="0.48925"
         id="stop26"
         style="stop-color:#898989;stop-opacity:1;" /><stop
         stop-color="#006b1b"
         offset="1"
         id="stop27"
         style="stop-color:#818181;stop-opacity:1;" /></linearGradient><clipPath
       id="clipPath314-0"><path
         d="m102.55 386.54h306.91v-340.95h-306.91z"
         id="path27" /></clipPath><clipPath
       id="clipPath28"><path
         d="m246.28 386.54h126.93v-61.18h-126.93z"
         id="path28" /></clipPath><clipPath
       id="clipPath29"><path
         d="m120.81 354.12h162v-199.71h-162z"
         id="path29" /></clipPath><clipPath
       id="clipPath30"><path
         d="m102.55 183.93h306.91v-138.35h-306.91z"
         id="path30" /></clipPath></defs><g
     transform="matrix(1.3333 0 0 -1.3338 3.0337e-5 682.92)"
     id="g65"><g
       clip-path="url(#clipPath18-5)"
       id="g64"><g
         clip-path="url(#clipPath26-4)"
         opacity="0.3"
         id="g46"
         style="display:inline"><g
           transform="translate(423.33,262.58)"
           id="g31"><path
             d="m 0,0 c 24.609,-29.336 33.766,-82.712 30.257,-110.4 -5.233,-41.305 -24.001,-80.79 -54.954,-104.08 -32.207,-24.237 -71.602,-38.584 -120.77,-41.895 -73.969,-4.966 -131.49,18.596 -169.74,54.265 -19.605,18.306 -50.392,44.586 -37.277,81.881 6.751,19.193 31.542,42.915 47.573,59.33 5.757,5.896 17.093,16.817 15.857,23.968 -2.838,12.112 -21.413,30.319 -29.265,43.236 -23.539,36.903 -28.797,92.983 -8.08,139.59 24.702,55.552 86.858,90.859 171.85,87.812 35.186,-1.262 78.051,-12.854 107.51,-29.798 C -4.957,179.724 29.293,151.822 24.968,121.093 22.31,102.212 8.28,81.244 -8.318,61.025 -18.613,48.484 -23.394,40.824 -22.802,33.465 -22.298,27.22 -7.085,8.461 0.007,0.007"
             fill="#000000"
             id="path31" /></g><g
           transform="translate(412.09,393.69)"
           id="g32"><path
             d="m 0,0 v -17.365 l -33.885,-51.406 v 17.364 z"
             fill="#000000"
             id="path32" /></g><g
           clip-path="url(#clipPath30-0)"
           id="g38"><g
             transform="translate(378.2,342.28)"
             id="g33"><path
               d="m 0,0 v -17.365 c -0.539,-0.817 -1.159,-1.529 -1.84,-2.13 V -2.13 C -1.159,-1.529 -0.539,-0.817 0,0"
               fill="#000000"
               id="path33" /></g><g
             transform="translate(376.36,340.15)"
             id="g34"><path
               d="m 0,0 v -17.365 c -1.812,-1.6 -4.056,-2.428 -6.342,-2.428 -1.424,0 -2.865,0.32 -4.228,0.976 v 17.365 c 1.363,-0.655 2.804,-0.977 4.228,-0.977 2.286,0 4.53,0.828 6.342,2.429"
               fill="#000000"
               id="path34" /></g><g
             transform="translate(365.79,338.7)"
             id="g35"><path
               d="m 0,0 v -17.365 c -0.812,0.39 -1.595,0.898 -2.332,1.527 -0.426,0.362 -8.514,7.25 -17.937,13.241 -8.893,5.639 -17.619,10.503 -26.161,14.608 v 17.365 c 8.542,-4.105 17.268,-8.97 26.161,-14.608 C -10.846,8.776 -2.758,1.889 -2.332,1.526 -1.595,0.897 -0.812,0.39 0,0"
               fill="#000000"
               id="path35" /></g><g
             transform="translate(319.36,368.08)"
             id="g36"><path
               d="m 0,0 v -17.365 c -0.508,0.245 -1.016,0.487 -1.523,0.725 -9.037,4.237 -17.478,7.428 -25.335,9.546 -7.857,2.118 -14.724,3.191 -20.611,3.191 -6.518,0 -11.455,-1.475 -14.796,-4.426 V 9.036 c 3.341,2.951 8.278,4.426 14.796,4.426 5.887,0 12.754,-1.072 20.611,-3.191 C -19.001,8.153 -10.56,4.962 -1.523,0.726 -1.016,0.486 -0.508,0.245 0,0"
               fill="#000000"
               id="path36" /></g><g
             transform="translate(257.1,377.11)"
             id="g37"><path
               d="m 0,0 v -17.365 c -0.285,-0.251 -0.557,-0.513 -0.819,-0.786 -3.339,-3.474 -5.004,-7.906 -5.004,-13.312 v 17.364 c 0,5.407 1.665,9.839 5.004,13.313 C -0.557,-0.513 -0.285,-0.251 0,0"
               fill="#000000"
               id="path37" /></g></g><g
           clip-path="url(#clipPath34-2)"
           id="g40"><g
             transform="translate(287.81,166.77)"
             id="g39"><path
               d="m 0,0 v -17.364 c 0,7.33 -4.041,14.269 -12.078,20.837 -8.055,6.559 -18.071,13.401 -30.05,20.554 -11.979,7.135 -24.94,14.846 -38.881,23.16 -13.986,8.332 -27.027,18.125 -38.871,29.222 -11.988,11.186 -21.995,24.028 -30.051,38.493 -8.046,14.473 -12.069,31.163 -12.069,50.077 v 17.365 c 0,-18.914 4.023,-35.603 12.069,-50.077 8.056,-14.465 18.063,-27.308 30.051,-38.494 11.844,-11.096 24.885,-20.89 38.871,-29.221 13.941,-8.315 26.902,-16.026 38.881,-23.16 11.979,-7.153 21.995,-13.996 30.05,-20.554 C -4.041,14.271 0,7.33 0,0"
               fill="#000000"
               id="path38" /></g></g><g
           clip-path="url(#clipPath38-0)"
           id="g44"><g
             transform="translate(414.46,178.93)"
             id="g41"><path
               d="m 0,0 v -17.365 c 0,-20.838 -4.419,-38.883 -13.257,-54.119 -6.514,-11.243 -14.465,-21.007 -23.857,-29.307 v 17.364 c 9.392,8.301 17.343,18.065 23.857,29.308 C -4.419,-38.884 0,-20.838 0,0"
               fill="#000000"
               id="path40" /></g><g
             transform="translate(377.34,95.508)"
             id="g42"><path
               d="m 0,0 v -17.364 c -3.351,-2.962 -6.886,-5.738 -10.604,-8.327 -14.129,-9.838 -30.15,-17.168 -48.005,-21.998 -17.874,-4.814 -35.848,-7.233 -53.902,-7.233 -33.585,0 -62.162,5.673 -85.734,16.998 v 17.365 c 23.572,-11.325 52.149,-16.999 85.734,-16.999 18.054,0 36.028,2.42 53.902,7.233 17.855,4.831 33.876,12.161 48.005,21.999 C -6.886,-5.736 -3.351,-2.962 0,0"
               fill="#000000"
               id="path41" /></g><g
             transform="translate(179.1,74.949)"
             id="g43"><path
               d="m 0,0 v -17.365 c -1.79,0.86 -3.551,1.753 -5.283,2.677 -24.543,13.119 -46.629,32.999 -66.267,59.625 V 62.301 C -51.912,35.676 -29.826,15.795 -5.283,2.678 -3.551,1.753 -1.79,0.86 0,0"
               fill="#000000"
               id="path42" /></g></g><g
           transform="translate(256.58,461.42)"
           id="g45"><path
             d="m 0,0 c 31.41,0 59.589,-5.699 84.528,-17.08 24.939,-11.389 48.6,-28.274 70.983,-50.645 l -33.885,-51.406 c -1.971,-2.992 -5.035,-4.559 -8.182,-4.559 -2.27,0 -4.584,0.816 -6.56,2.502 -0.426,0.363 -8.514,7.25 -17.937,13.242 -9.424,5.974 -18.657,11.079 -27.684,15.334 -9.036,4.236 -17.478,7.427 -25.335,9.545 -7.857,2.119 -14.724,3.191 -20.611,3.191 -7.073,0 -12.284,-1.737 -15.614,-5.211 -3.339,-3.475 -5.004,-7.907 -5.004,-13.313 0,-6.94 4.023,-13.411 12.077,-19.393 8.037,-5.983 18.154,-12.151 30.33,-18.524 13.177,-6.922 26.245,-14.058 39.178,-21.414 13.932,-7.915 26.99,-17.469 39.168,-28.655 12.177,-11.203 22.293,-24.614 30.348,-40.239 8.046,-15.626 12.078,-34.248 12.078,-55.856 0,-20.838 -4.419,-38.884 -13.257,-54.119 -8.838,-15.254 -20.322,-27.787 -34.461,-37.634 -14.13,-9.838 -30.15,-17.168 -48.006,-21.999 -17.874,-4.812 -35.847,-7.232 -53.901,-7.232 -36.135,0 -66.474,6.568 -91.017,19.676 -24.543,13.118 -46.629,32.998 -66.267,59.623 l 41.85,52.028 c 2.004,2.487 4.727,3.741 7.465,3.741 2.56,0 5.133,-1.097 7.142,-3.307 0.24,-0.264 4.806,-5.282 13.059,-11.655 8.352,-6.443 17.334,-12.062 26.802,-16.778 9.459,-4.769 19.305,-8.739 29.448,-11.868 10.017,-3.102 19.341,-4.635 27.981,-4.635 8.631,0 15.219,1.542 19.737,4.635 4.509,3.085 6.776,8.872 6.776,17.363 0,7.33 -4.041,14.27 -12.078,20.838 -8.054,6.558 -18.071,13.401 -30.05,20.554 -11.979,7.134 -24.939,14.845 -38.88,23.16 -13.986,8.331 -27.027,18.125 -38.871,29.221 -11.988,11.186 -21.996,24.029 -30.051,38.494 -8.046,14.474 -12.069,31.163 -12.069,50.077 0,18.525 3.528,34.727 10.602,48.615 7.065,13.898 16.587,25.562 28.566,35.028 11.979,9.448 25.821,16.583 41.526,21.413 C -34.371,-2.42 -17.676,0 0,0"
             fill="#000000"
             id="path44" /></g></g><g
         clip-path="url(#clipPath110-3)"
         id="g47" /><g
         transform="translate(418.33,267.58)"
         id="g48"
         style="display:inline"><path
           d="m 0,0 c 24.609,-29.336 33.766,-82.712 30.257,-110.4 -5.233,-41.305 -24.001,-80.79 -54.954,-104.08 -32.207,-24.237 -71.602,-38.584 -120.77,-41.895 -73.969,-4.966 -131.49,18.596 -169.74,54.265 -19.605,18.306 -50.392,44.586 -37.277,81.881 6.751,19.193 31.542,42.915 47.573,59.33 5.757,5.896 17.093,16.817 15.857,23.968 -2.838,12.112 -21.413,30.319 -29.265,43.236 -23.539,36.903 -28.797,92.983 -8.08,139.59 24.702,55.552 86.858,90.859 171.85,87.812 35.186,-1.262 78.051,-12.854 107.51,-29.798 C -4.957,179.724 29.293,151.822 24.968,121.093 22.31,102.212 8.28,81.244 -8.318,61.025 -18.613,48.484 -23.394,40.824 -22.802,33.465 -22.298,27.22 -7.085,8.461 0.007,0.007"
           fill="#333333"
           id="path47" /></g><g
         clip-path="url(#clipPath162-1)"
         id="g62"
         style="display:inline"><g
           transform="translate(407.09,398.69)"
           id="g49"
           style="display:inline"><path
             d="M -5.2556e-4,-1.471e-4 -33.957526,-51.440147 v -0.07649 c -0.53202,-0.75719 -1.2567,-1.522 -1.8854,-2.0769 -1.7868,-1.5197 -3.9998,-2.373 -6.2232,-2.373 -1.424,0 -2.9532,0.41188 -4.3162,1.0669 v -0.04511 c -0.78086,0.38411 -1.5338,0.87424 -2.2444,1.4807 -0.426,0.363 -8.5147,7.2498 -17.938,13.242 -8.893,5.638 -17.681,10.678 -26.223,14.783 l -0.002,-0.14317 c -0.48635,0.23424 -0.97426,0.46448 -1.4597,0.69425 -9.037004,4.236 -17.477004,7.427 -25.334004,9.545 -7.857,2.119 -14.725,3.1908 -20.612,3.1908 -6.0308,0 -10.704,-1.2647 -14.016,-3.7909 v 0.14513 l -0.19816,-0.11179 c -0.285,-0.251 -1.1388,-1.1802 -1.4008,-1.4532 -3.339,-3.474 -5.0028,-7.9074 -5.0028,-13.314 v -17.364 c 0,5.406 1.6639,9.8384 5.0028,13.312 0.262,0.273 1.3179,1.1159 1.6029,1.3669 v 0.05687 c 3.3117,2.5241 7.9837,3.789 14.012,3.789 5.887,0 12.755,-1.0728 20.612,-3.1908 7.857,-2.118 16.297,-5.31 25.334004,-9.547 0.44059,-0.20682 0.88284,-0.41929 1.3243,-0.6315 v -0.05295 c 8.542,-4.105 17.467,-9.009 26.36,-14.648 9.423,-5.991 17.512,-12.88 17.938,-13.242 0.7082,-0.60442 1.4585,-1.0931 2.2366,-1.4768 v -0.01961 c 1.363,-0.656 2.9,-1.0061 4.324,-1.0061 2.2009,0 4.3599,0.77035 6.1349,2.2553 v -0.05687 c 0.681,0.601 1.7231,1.707 2.2621,2.524 l -0.002,0.15297 33.67000044,51.09 z"
             fill="url(#linearGradient16)"
             id="path48" /></g><g
           clip-path="url(#clipPath166-5)"
           id="g52"><g
             clip-path="url(#clipPath170-6)"
             id="g51"
             style="display:inline"><g
               clip-path="url(#clipPath174-2)"
               id="g50" /></g></g><g
           clip-path="url(#clipPath178-0)"
           id="g56"><g
             clip-path="url(#clipPath182-3)"
             id="g55"><g
               clip-path="url(#clipPath186-8)"
               id="g54"
               style="display:inline"><g
                 transform="translate(282.81,171.77)"
                 id="g53"><path
                   d="m 0,0 v -17.364 c 0,7.33 -4.041,14.269 -12.078,20.837 -8.055,6.559 -18.071,13.401 -30.05,20.554 -11.979,7.135 -24.94,14.846 -38.881,23.16 -13.986,8.332 -27.027,18.125 -38.871,29.222 -11.988,11.185 -21.995,24.028 -30.051,38.493 -8.046,14.473 -12.069,31.163 -12.069,50.077 v 17.365 c 0,-18.914 4.023,-35.603 12.069,-50.077 8.056,-14.465 18.063,-27.308 30.051,-38.494 11.844,-11.096 24.885,-20.89 38.871,-29.221 13.941,-8.315 26.902,-16.026 38.881,-23.16 11.979,-7.153 21.995,-13.996 30.05,-20.554 C -4.041,14.271 0,7.33 0,0"
                   fill="url(#linearGradient13)"
                   id="path52" /></g></g></g></g><g
           clip-path="url(#clipPath190-7)"
           id="g60"><g
             clip-path="url(#clipPath194-3)"
             id="g59"
             style="display:inline"><g
               clip-path="url(#clipPath198-6)"
               id="g58"><g
                 transform="translate(409.46,183.93)"
                 id="g57"><path
                   d="m 2.9318e-4,2.512e-4 c 0,-20.8380002 -4.41859998,-38.8830002 -13.25700018,-54.1180002 -6.514,-11.243 -14.465,-21.009 -23.857,-29.31 v -17.362001 c 9.392,8.300001 17.343,18.063001 23.857,29.306001 8.8380002,15.236 13.25700018,33.28 13.25700018,54.118 z M -306.90971,-41.684749 v -17.364 c 19.638,-26.626 41.724,-46.506001 66.267,-59.625001 1.4544,-0.77591 2.9327,-1.5243 4.428,-2.2553 l -0.008,-0.38047 c 23.572,-11.325 53.012,-17.039 86.597,-17.039 18.054,0 36.027,2.4188 53.901003,7.2328 17.855,4.83 33.875,12.16 48.004,21.998 3.718,2.589 7.2531,5.3651 10.604,8.3271 v 17.364001 c -3.351,-2.962 -6.8861,-5.7371 -10.604,-8.3271 -14.129,-9.838001 -30.149,-17.167001 -48.004,-21.998001 -17.874003,-4.813 -35.847003,-7.2328 -53.901003,-7.2328 -33.585,0 -62.697,6.2687 -86.269,17.594 l -0.006,-0.32752 c -1.6033,0.77884 -3.1855,1.579 -4.7419,2.4103 -24.543,13.117001 -46.629,32.999001 -66.267,59.623001 z"
                   fill="url(#linearGradient10)"
                   id="path56"
                   style="display:inline" /></g></g></g></g><g
           transform="translate(251.58,466.42)"
           id="g61"
           style="display:inline"><path
             d="m 0,0 c 31.41,0 59.589,-5.699 84.528,-17.08 24.939,-11.389 48.6,-28.274 70.983,-50.645 l -33.885,-51.406 c -1.971,-2.992 -5.035,-4.559 -8.182,-4.559 -2.27,0 -4.584,0.816 -6.56,2.502 -0.426,0.363 -8.514,7.25 -17.937,13.242 -9.424,5.974 -18.657,11.079 -27.684,15.334 -9.036,4.236 -17.478,7.427 -25.335,9.545 -7.857,2.119 -14.724,3.191 -20.611,3.191 -7.073,0 -12.284,-1.737 -15.614,-5.211 -3.339,-3.475 -5.004,-7.907 -5.004,-13.313 0,-6.94 4.023,-13.411 12.077,-19.393 8.037,-5.983 18.154,-12.151 30.33,-18.524 13.177,-6.922 26.245,-14.058 39.178,-21.414 13.932,-7.915 26.99,-17.469 39.168,-28.655 12.177,-11.203 22.293,-24.613 30.348,-40.239 8.046,-15.626 12.078,-34.248 12.078,-55.856 0,-20.838 -4.419,-38.884 -13.257,-54.119 -8.838,-15.254 -20.322,-27.787 -34.461,-37.634 -14.13,-9.838 -30.15,-17.168 -48.006,-21.999 -17.874,-4.812 -35.847,-7.232 -53.901,-7.232 -36.135,0 -66.474,6.568 -91.017,19.676 -24.543,13.118 -46.629,32.998 -66.267,59.623 l 41.85,52.028 c 2.004,2.487 4.727,3.741 7.465,3.741 2.56,0 5.133,-1.097 7.142,-3.307 0.24,-0.264 4.806,-5.282 13.059,-11.655 8.352,-6.443 17.334,-12.062 26.802,-16.778 9.459,-4.769 19.305,-8.739 29.448,-11.868 10.017,-3.102 19.341,-4.635 27.981,-4.635 8.631,0 15.219,1.542 19.737,4.635 4.509,3.085 6.776,8.872 6.776,17.363 0,7.33 -4.041,14.27 -12.078,20.838 -8.054,6.558 -18.071,13.401 -30.05,20.554 -11.979,7.134 -24.939,14.845 -38.88,23.16 -13.986,8.331 -27.027,18.125 -38.871,29.221 -11.988,11.186 -21.996,24.029 -30.051,38.494 -8.046,14.474 -12.069,31.163 -12.069,50.077 0,18.525 3.528,34.727 10.602,48.615 7.065,13.898 16.587,25.562 28.566,35.028 11.979,9.448 25.821,16.583 41.526,21.413 C -34.371,-2.42 -17.676,0 0,0"
             fill="#00c832"
             id="path60"
             style="fill:#ffffff" /></g></g><g
         clip-path="url(#clipPath314-0)"
         id="g63" /></g></g></svg>
